<?xml version="1.0" encoding="UTF-8" standalone="no"?>
<svg
   version="1.1"
   viewBox="0 0 452.11707 217.59306"
   fill="none"
   stroke="none"
   stroke-linecap="square"
   stroke-miterlimit="10"
   id="svg119"
   sodipodi:docname="tdfa_unoptimized.svg"
   width="452.11707"
   height="217.59306"
   inkscape:version="1.1.1 (3bf5ae0d25, 2021-09-20)"
   xmlns:inkscape="http://www.inkscape.org/namespaces/inkscape"
   xmlns:sodipodi="http://sodipodi.sourceforge.net/DTD/sodipodi-0.dtd"
   xmlns="http://www.w3.org/2000/svg"
   xmlns:svg="http://www.w3.org/2000/svg">
  <defs
     id="defs123">
    <clipPath
       clipPathUnits="userSpaceOnUse"
       id="clipPath155">
      <rect
         style="font-variation-settings:normal;opacity:1;vector-effect:none;fill:#1c4587;fill-opacity:1;fill-rule:evenodd;stroke:none;stroke-width:1;stroke-linecap:butt;stroke-linejoin:miter;stroke-miterlimit:10;stroke-dasharray:none;stroke-dashoffset:0;stroke-opacity:1;-inkscape-stroke:none;stop-color:#000000;stop-opacity:1"
         id="rect157"
         width="452.11707"
         height="217.59306"
         x="36.145615"
         y="97.120712" />
    </clipPath>
  </defs>
  <sodipodi:namedview
     id="namedview121"
     pagecolor="#ffffff"
     bordercolor="#666666"
     borderopacity="1.0"
     inkscape:pageshadow="2"
     inkscape:pageopacity="0.0"
     inkscape:pagecheckerboard="0"
     showgrid="false"
     inkscape:zoom="1.3197917"
     inkscape:cx="443.63062"
     inkscape:cy="172.75454"
     inkscape:window-width="1916"
     inkscape:window-height="1037"
     inkscape:window-x="0"
     inkscape:window-y="20"
     inkscape:window-maximized="1"
     inkscape:current-layer="svg119" />
  <clipPath
     id="gd3650c1d61_0_1057.0">
    <path
       d="M 0,0 H 960 V 540 H 0 Z"
       clip-rule="nonzero"
       id="path2" />
  </clipPath>
  <g
     clip-path="url(#clipPath155)"
     id="g117"
     transform="translate(-36.145615,-97.120712)">
    <path
       fill="#ffffff"
       d="M 0,0 H 960 V 540 H 0 Z"
       fill-rule="evenodd"
       id="path5" />
    <path
       fill="#000000"
       fill-opacity="0"
       d="M 32.72441,11.68504 H 927.27556 V 71.811019 H 32.72441 Z"
       fill-rule="evenodd"
       id="path7" />
    <path
       fill="#ffffff"
       d="m 52.708786,44.87479 q -4.546875,-1.3125 -6.609375,-3.203125 -2.0625,-1.90625 -2.0625,-4.703125 0,-3.15625 2.515625,-5.21875 2.53125,-2.0625 6.578125,-2.0625 2.75,0 4.90625,1.0625 2.15625,1.0625 3.328125,2.9375 1.1875,1.875 1.1875,4.09375 h -3.53125 q 0,-2.421875 -1.546875,-3.796875 -1.546875,-1.390625 -4.34375,-1.390625 -2.609375,0 -4.078125,1.140625 -1.453125,1.140625 -1.453125,3.1875 0,1.625 1.375,2.765625 1.390625,1.125 4.71875,2.0625 3.34375,0.9375 5.21875,2.0625 1.890625,1.125 2.796875,2.640625 0.90625,1.5 0.90625,3.53125 0,3.25 -2.53125,5.203125 -2.53125,1.953125 -6.78125,1.953125 -2.75,0 -5.140625,-1.046875 -2.375,-1.0625 -3.671875,-2.890625 -1.296875,-1.84375 -1.296875,-4.171875 h 3.546875 q 0,2.421875 1.78125,3.828125 1.796875,1.40625 4.78125,1.40625 2.796875,0 4.28125,-1.140625 1.484375,-1.140625 1.484375,-3.09375 0,-1.96875 -1.375,-3.03125 -1.375,-1.078125 -4.984375,-2.125 z m 26.146683,9.9375 q -1.984375,2.328125 -5.8125,2.328125 -3.171875,0 -4.84375,-1.84375 -1.65625,-1.84375 -1.671875,-5.453125 V 36.921665 h 3.390625 V 49.74979 q 0,4.515625 3.671875,4.515625 3.890625,0 5.171875,-2.90625 v -14.4375 h 3.40625 V 56.78104 h -3.234375 z m 25.286791,-7.734375 q 0,4.546875 -2.09375,7.3125 -2.093752,2.75 -5.625002,2.75 -3.765625,0 -5.8125,-2.65625 l -0.171875,2.296875 h -3.125 V 28.577915 h 3.40625 v 10.53125 q 2.046875,-2.5625 5.65625,-2.5625 3.624997,0 5.687497,2.734375 2.07813,2.734375 2.07813,7.5 z m -3.40625,-0.390625 q 0,-3.46875 -1.343752,-5.359375 -1.328125,-1.890625 -3.84375,-1.890625 -3.359375,0 -4.828125,3.125 v 8.578125 q 1.5625,3.125 4.859375,3.125 2.4375,0 3.796875,-1.890625 1.359377,-1.890625 1.359377,-5.6875 z m 10.87266,-9.765625 0.0937,2.203125 q 2.1875,-2.578125 5.89063,-2.578125 4.17187,0 5.67187,3.203125 0.98438,-1.4375 2.57813,-2.3125 1.59375,-0.890625 3.75,-0.890625 6.53125,0 6.64062,6.921875 v 13.3125 H 132.843 V 43.671665 q 0,-2.125 -0.96875,-3.171875 -0.96875,-1.0625 -3.26563,-1.0625 -1.89062,0 -3.14062,1.125 -1.25,1.125 -1.45313,3.03125 v 13.1875 h -3.40625 V 43.765415 q 0,-4.328125 -4.25,-4.328125 -3.34375,0 -4.5625,2.84375 v 14.5 h -3.40625 V 36.921665 Z m 42.0121,19.859375 q -0.29687,-0.59375 -0.46875,-2.09375 -2.375,2.453125 -5.65625,2.453125 -2.9375,0 -4.82812,-1.65625 -1.875,-1.65625 -1.875,-4.203125 0,-3.109375 2.35937,-4.828125 2.35938,-1.71875 6.64063,-1.71875 h 3.29687 v -1.5625 q 0,-1.765625 -1.0625,-2.828125 -1.0625,-1.0625 -3.14062,-1.0625 -1.8125,0 -3.04688,0.921875 -1.23437,0.921875 -1.23437,2.21875 h -3.40625 q 0,-1.484375 1.04687,-2.859375 1.0625,-1.390625 2.85938,-2.203125 1.8125,-0.8125 3.98437,-0.8125 3.4375,0 5.375,1.71875 1.95313,1.71875 2.03125,4.734375 v 9.140625 q 0,2.734375 0.6875,4.34375 v 0.296875 z m -5.625,-2.59375 q 1.59375,0 3.01563,-0.8125 1.4375,-0.828125 2.07812,-2.15625 v -4.078125 h -2.65625 q -6.25,0 -6.25,3.65625 0,1.59375 1.0625,2.5 1.07813,0.890625 2.75,0.890625 z m 18.4177,-22.078125 v 4.8125 h 3.71875 v 2.625 h -3.71875 v 12.3125 q 0,1.203125 0.5,1.796875 0.5,0.59375 1.6875,0.59375 0.59375,0 1.625,-0.21875 v 2.75 q -1.34375,0.359375 -2.60938,0.359375 -2.28125,0 -3.4375,-1.375 -1.15625,-1.375 -1.15625,-3.90625 v -12.3125 h -3.60937 v -2.625 h 3.60937 v -4.8125 z m 15.63975,22.265625 q 1.82813,0 3.1875,-1.09375 1.35938,-1.109375 1.5,-2.765625 h 3.21875 q -0.0937,1.71875 -1.1875,3.265625 -1.07812,1.53125 -2.89062,2.453125 -1.79688,0.90625 -3.82813,0.90625 -4.04687,0 -6.45312,-2.703125 -2.39063,-2.703125 -2.39063,-7.40625 v -0.5625 q 0,-2.90625 1.0625,-5.15625 1.0625,-2.265625 3.04688,-3.515625 2,-1.25 4.71875,-1.25 3.34375,0 5.54687,2 2.21875,2 2.375,5.203125 h -3.21875 q -0.14062,-1.921875 -1.45312,-3.15625 -1.3125,-1.25 -3.25,-1.25 -2.57813,0 -4.01563,1.859375 -1.42187,1.859375 -1.42187,5.390625 v 0.640625 q 0,3.4375 1.40625,5.296875 1.42187,1.84375 4.04687,1.84375 z M 197.1687,39.327915 q 2.25,-2.78125 5.875,-2.78125 6.29688,0 6.34375,7.109375 v 13.125 h -3.39062 V 43.640415 q -0.0156,-2.15625 -0.98438,-3.171875 -0.96875,-1.03125 -3,-1.03125 -1.65625,0 -2.90625,0.890625 -1.25,0.875 -1.9375,2.296875 v 14.15625 h -3.40625 V 28.577915 h 3.40625 z m 34.85634,17.8125 q -4.03125,0 -6.57812,-2.640625 -2.53125,-2.65625 -2.53125,-7.09375 v -0.625 q 0,-2.953125 1.125,-5.28125 1.14062,-2.328125 3.15625,-3.640625 2.03125,-1.3125 4.40625,-1.3125 3.875,0 6.01562,2.5625 2.15625,2.546875 2.15625,7.296875 v 1.421875 h -13.45312 q 0.0625,2.9375 1.70312,4.75 1.65625,1.796875 4.1875,1.796875 1.79688,0 3.04688,-0.734375 1.25,-0.734375 2.1875,-1.9375 l 2.0625,1.609375 q -2.48438,3.828125 -7.48438,3.828125 z M 231.60317,39.34354 q -2.0625,0 -3.45313,1.5 -1.39062,1.484375 -1.71875,4.1875 h 9.9375 v -0.25 q -0.14062,-2.59375 -1.39062,-4.015625 -1.25,-1.421875 -3.375,-1.421875 z m 18.76036,4.828125 4.40625,-7.25 h 3.96875 l -6.5,9.8125 6.70312,10.046875 h -3.9375 l -4.59375,-7.4375 -4.57812,7.4375 h -3.95313 l 6.70313,-10.046875 -6.5,-9.8125 h 3.92187 z m 16.56915,-12.0625 v 4.8125 h 3.71875 v 2.625 h -3.71875 v 12.3125 q 0,1.203125 0.5,1.796875 0.5,0.59375 1.6875,0.59375 0.59375,0 1.625,-0.21875 v 2.75 q -1.34375,0.359375 -2.60938,0.359375 -2.28125,0 -3.4375,-1.375 -1.15625,-1.375 -1.15625,-3.90625 v -12.3125 h -3.60937 v -2.625 h 3.60937 v -4.8125 z m 17.28039,7.859375 q -0.76562,-0.125 -1.67187,-0.125 -3.34375,0 -4.53125,2.84375 V 56.78104 H 274.6037 V 36.921665 h 3.3125 l 0.0469,2.296875 q 1.67188,-2.671875 4.75,-2.671875 0.98438,0 1.5,0.265625 z m 14.6428,16.8125 q -0.29688,-0.59375 -0.46875,-2.09375 -2.375,2.453125 -5.65625,2.453125 -2.9375,0 -4.82813,-1.65625 -1.875,-1.65625 -1.875,-4.203125 0,-3.109375 2.35938,-4.828125 2.35937,-1.71875 6.64062,-1.71875 h 3.29688 v -1.5625 q 0,-1.765625 -1.0625,-2.828125 -1.0625,-1.0625 -3.14063,-1.0625 -1.8125,0 -3.04687,0.921875 -1.23438,0.921875 -1.23438,2.21875 h -3.40625 q 0,-1.484375 1.04688,-2.859375 1.0625,-1.390625 2.85937,-2.203125 1.8125,-0.8125 3.98438,-0.8125 3.4375,0 5.375,1.71875 1.95312,1.71875 2.03125,4.734375 v 9.140625 q 0,2.734375 0.6875,4.34375 v 0.296875 z m -5.625,-2.59375 q 1.59375,0 3.01562,-0.8125 1.4375,-0.828125 2.07813,-2.15625 v -4.078125 h -2.65625 q -6.25,0 -6.25,3.65625 0,1.59375 1.0625,2.5 1.07812,0.890625 2.75,0.890625 z m 21.77707,0.1875 q 1.82812,0 3.1875,-1.09375 1.35937,-1.109375 1.5,-2.765625 h 3.21875 q -0.0937,1.71875 -1.1875,3.265625 -1.07813,1.53125 -2.89063,2.453125 -1.79687,0.90625 -3.82812,0.90625 -4.04688,0 -6.45313,-2.703125 -2.39062,-2.703125 -2.39062,-7.40625 v -0.5625 q 0,-2.90625 1.0625,-5.15625 1.0625,-2.265625 3.04687,-3.515625 2,-1.25 4.71875,-1.25 3.34375,0 5.54688,2 2.21875,2 2.375,5.203125 h -3.21875 q -0.14063,-1.921875 -1.45313,-3.15625 -1.3125,-1.25 -3.25,-1.25 -2.57812,0 -4.01562,1.859375 -1.42188,1.859375 -1.42188,5.390625 v 0.640625 q 0,3.4375 1.40625,5.296875 1.42188,1.84375 4.04688,1.84375 z m 16.3186,-22.265625 v 4.8125 h 3.71875 v 2.625 h -3.71875 v 12.3125 q 0,1.203125 0.5,1.796875 0.5,0.59375 1.6875,0.59375 0.59375,0 1.625,-0.21875 v 2.75 q -1.34375,0.359375 -2.60937,0.359375 -2.28125,0 -3.4375,-1.375 -1.15625,-1.375 -1.15625,-3.90625 v -12.3125 h -3.60938 v -2.625 h 3.60938 v -4.8125 z m 11.37412,24.671875 h -3.40625 V 36.921665 h 3.40625 z m -3.67188,-25.125 q 0,-0.828125 0.5,-1.390625 0.5,-0.578125 1.48438,-0.578125 1,0 1.51562,0.578125 0.51563,0.5625 0.51563,1.390625 0,0.828125 -0.51563,1.375 -0.51562,0.546875 -1.51562,0.546875 -0.98438,0 -1.48438,-0.546875 -0.5,-0.546875 -0.5,-1.375 z m 8.20123,15.015625 q 0,-2.921875 1.14063,-5.25 1.15625,-2.34375 3.20312,-3.609375 2.04688,-1.265625 4.67188,-1.265625 4.04687,0 6.54687,2.8125 2.51563,2.8125 2.51563,7.46875 v 0.25 q 0,2.890625 -1.10938,5.203125 -1.10937,2.296875 -3.17187,3.578125 -2.0625,1.28125 -4.75,1.28125 -4.03125,0 -6.54688,-2.796875 -2.5,-2.8125 -2.5,-7.4375 z m 3.40625,0.40625 q 0,3.296875 1.53125,5.296875 1.54688,2 4.10938,2 2.59375,0 4.10937,-2.03125 1.53125,-2.03125 1.53125,-5.671875 0,-3.265625 -1.5625,-5.296875 -1.54687,-2.03125 -4.10937,-2.03125 -2.51563,0 -4.0625,2 -1.54688,2 -1.54688,5.734375 z m 22.14331,-10.15625 0.10938,2.5 q 2.28125,-2.875 5.95312,-2.875 6.29688,0 6.34375,7.109375 v 13.125 H 381.7952 V 43.640415 q -0.0156,-2.15625 -0.98438,-3.171875 -0.96875,-1.03125 -3,-1.03125 -1.65625,0 -2.90625,0.890625 -1.25,0.875 -1.9375,2.296875 v 14.15625 h -3.40625 V 36.921665 Z"
       fill-rule="nonzero"
       id="path9" />
    <path
       fill="#000000"
       fill-opacity="0"
       d="M 88.591545,268.44617 152.46556,212.44618"
       fill-rule="evenodd"
       id="path11" />
    <path
       stroke="#1c4587"
       stroke-width="2"
       stroke-linejoin="round"
       stroke-linecap="butt"
       d="M 88.591545,268.44617 147.31167,216.96471"
       fill-rule="evenodd"
       id="path13" />
    <path
       fill="#1c4587"
       stroke="#1c4587"
       stroke-width="2"
       stroke-linecap="butt"
       d="m 147.31168,216.9647 -0.20848,3.17397 3.16386,-5.76502 -6.12935,2.38257 z"
       fill-rule="evenodd"
       id="path15" />
    <path
       fill="#000000"
       fill-opacity="0"
       d="m 88.591545,268.44617 c 169.748015,0 339.496055,-22.44093 339.496055,-44.88188"
       fill-rule="evenodd"
       id="path17" />
    <path
       stroke="#1c4587"
       stroke-width="2"
       stroke-linejoin="round"
       stroke-linecap="butt"
       d="m 88.591545,268.44617 c 84.873995,0 169.748015,-5.61023 233.403525,-14.02559 31.82776,-4.20767 58.35089,-9.11662 76.91708,-14.37622 9.28309,-2.62981 16.57697,-5.34726 21.55002,-8.10854 1.24329,-0.69033 2.34149,-1.38339 3.28949,-2.07852 0.11853,-0.0869 0.23468,-0.1738 0.34848,-0.26076 l 0.31433,-0.24537"
       fill-rule="evenodd"
       id="path19" />
    <path
       fill="#1c4587"
       stroke="#1c4587"
       stroke-width="2"
       stroke-linecap="butt"
       d="m 424.4145,229.35117 0.69363,3.10425 1.41263,-6.42261 -5.21051,4.01198 z"
       fill-rule="evenodd"
       id="path21" />
    <path
       fill="#000000"
       fill-opacity="0"
       d="m 428.10205,201.34381 c 0,-12.49997 8.93253,-24.07449 18.31101,-24.99995 9.37844,-0.92546 19.20285,8.79815 18.31097,18.05903 -0.89185,9.26088 -12.49997,18.05904 -24.99994,18.05904"
       fill-rule="evenodd"
       id="path23" />
    <path
       stroke="#1c4587"
       stroke-width="2"
       stroke-linejoin="round"
       stroke-linecap="butt"
       d="m 428.10202,201.34381 c 0,-12.49999 8.93256,-24.07449 18.31103,-24.99995 9.37845,-0.92546 19.20285,8.79815 18.31098,18.05903 -0.44589,4.63045 -3.57089,9.14519 -8.14694,12.50235 -2.28797,1.67856 -4.93872,3.06774 -7.79874,4.03726 -0.715,0.24239 -1.44308,0.45855 -2.18185,0.64643 l -0.0718,0.0175"
       fill-rule="evenodd"
       id="path25" />
    <path
       fill="#1c4587"
       stroke="#1c4587"
       stroke-width="2"
       stroke-linecap="butt"
       d="m 446.52466,211.60646 1.95087,-2.5123 -5.8505,3.00284 6.41193,1.46033 z"
       fill-rule="evenodd"
       id="path27" />
    <path
       fill="#000000"
       fill-opacity="0"
       d="M 175.72409,212.44618 H 280.47998"
       fill-rule="evenodd"
       id="path29" />
    <path
       stroke="#1c4587"
       stroke-width="2"
       stroke-linejoin="round"
       stroke-linecap="butt"
       d="m 175.72408,212.44617 h 97.90175"
       fill-rule="evenodd"
       id="path31" />
    <path
       fill="#1c4587"
       stroke="#1c4587"
       stroke-width="2"
       stroke-linecap="butt"
       d="m 273.62582,212.44617 -2.24918,2.24918 6.17954,-2.24918 -6.17954,-2.24916 z"
       fill-rule="evenodd"
       id="path33" />
    <path
       fill="#000000"
       fill-opacity="0"
       d="M 303.7241,212.44618 H 416.47999"
       fill-rule="evenodd"
       id="path35" />
    <path
       stroke="#1c4587"
       stroke-width="2"
       stroke-linejoin="round"
       stroke-linecap="butt"
       d="M 303.7241,212.44617 H 409.62583"
       fill-rule="evenodd"
       id="path37" />
    <path
       fill="#1c4587"
       stroke="#1c4587"
       stroke-width="2"
       stroke-linecap="butt"
       d="m 409.62582,212.44617 -2.24918,2.24918 6.17954,-2.24918 -6.17954,-2.24916 z"
       fill-rule="evenodd"
       id="path39" />
    <path
       fill="#000000"
       fill-opacity="0"
       d="m 292.10205,201.34381 c 0,-12.49997 8.93253,-24.07449 18.31101,-24.99995 9.37844,-0.92546 19.20285,8.79815 18.31097,18.05903 -0.89185,9.26088 -12.49997,18.05904 -24.99994,18.05904"
       fill-rule="evenodd"
       id="path41" />
    <path
       stroke="#1c4587"
       stroke-width="2"
       stroke-linejoin="round"
       stroke-linecap="butt"
       d="m 292.10202,201.34381 c 0,-12.49999 8.93256,-24.07449 18.311,-24.99995 9.37848,-0.92546 19.20288,8.79815 18.31101,18.05903 -0.44592,4.63045 -3.57092,9.14519 -8.14694,12.50235 -2.288,1.67856 -4.93875,3.06774 -7.79874,4.03726 -0.71499,0.24239 -1.44308,0.45855 -2.18185,0.64643 l -0.0718,0.0175"
       fill-rule="evenodd"
       id="path43" />
    <path
       fill="#1c4587"
       stroke="#1c4587"
       stroke-width="2"
       stroke-linecap="butt"
       d="m 310.52466,211.60646 1.95087,-2.5123 -5.8505,3.00284 6.41193,1.46031 z"
       fill-rule="evenodd"
       id="path45" />
    <path
       fill="#000000"
       fill-opacity="0"
       d="m 164.10204,201.34381 c 0,-27.39238 66,-54.79263 132.00002,-54.78476 66,0.008 132,27.42387 132,54.84776"
       fill-rule="evenodd"
       id="path47" />
    <path
       stroke="#1c4587"
       stroke-width="2"
       stroke-linejoin="round"
       stroke-linecap="butt"
       d="m 164.10205,201.34381 c 0,-27.39237 65.99998,-54.79263 131.99997,-54.78476 33,0.004 66,6.85991 90.75,17.14288 12.375,5.14148 22.6875,11.13973 29.90625,17.56658 3.60937,3.21342 6.44531,6.53401 8.37891,9.90821 0.48339,0.84357 0.9104,1.69048 1.27899,2.53989 0.0922,0.21237 0.18066,0.42487 0.26547,0.63753 0.0424,0.10634 0.0839,0.21271 0.12445,0.31911 l 0.001,0.003"
       fill-rule="evenodd"
       id="path49" />
    <path
       fill="#1c4587"
       stroke="#1c4587"
       stroke-width="2"
       stroke-linecap="butt"
       d="m 426.80716,194.67606 -2.63358,-1.78375 3.3761,5.64334 1.04123,-6.49317 z"
       fill-rule="evenodd"
       id="path51" />
    <path
       fill="#7efc7e"
       d="m 65.34745,261.04468 v 0 c 0,-2.04391 1.656929,-3.70087 3.700859,-3.70087 h 15.842369 v 0 c 0.981529,0 1.922859,0.38993 2.616905,1.08396 0.694046,0.69406 1.083962,1.63537 1.083962,2.61691 v 14.80301 c 0,2.04391 -1.656937,3.70087 -3.700867,3.70087 H 69.048309 c -2.04393,0 -3.700859,-1.65696 -3.700859,-3.70087 z"
       fill-rule="evenodd"
       id="path53" />
    <path
       stroke="#1c4587"
       stroke-width="2"
       stroke-linejoin="round"
       stroke-linecap="butt"
       d="m 65.34745,261.04468 v 0 c 0,-2.04391 1.656929,-3.70087 3.700859,-3.70087 h 15.842369 v 0 c 0.981529,0 1.922859,0.38993 2.616905,1.08396 0.694046,0.69406 1.083962,1.63537 1.083962,2.61691 v 14.80301 c 0,2.04391 -1.656937,3.70087 -3.700867,3.70087 H 69.048309 c -2.04393,0 -3.700859,-1.65696 -3.700859,-3.70087 z"
       fill-rule="evenodd"
       id="path55" />
    <path
       fill="#1c4587"
       d="m 81.29359,270.30368 v -3.14063 q 0,-1.26562 -0.3125,-2.25 -0.296875,-0.98437 -0.84375,-1.65625 -0.5625,-0.65625 -1.359375,-1 -0.796875,-0.34375 -1.796875,-0.34375 -1.015625,0 -1.8125,0.34375 -0.796875,0.34375 -1.34375,1 -0.5625,0.67188 -0.859375,1.65625 -0.296875,0.98438 -0.296875,2.25 v 3.14063 q 0,1.28125 0.296875,2.26562 0.296875,0.96875 0.859375,1.625 0.5625,0.6875 1.359375,1.03125 0.8125,0.32813 1.8125,0.32813 1,0 1.796875,-0.32813 0.796875,-0.34375 1.34375,-1.03125 0.5625,-0.65625 0.859375,-1.625 0.296875,-0.98437 0.296875,-2.26562 z m -6.4375,-0.76563 q 0,-0.26562 0,-0.4375 0,-0.1875 0,-0.54687 v -1.78125 q 0,-0.8125 0.140625,-1.42188 0.15625,-0.60937 0.453125,-0.98437 0.265625,-0.34375 0.640625,-0.51563 0.375,-0.17187 0.890625,-0.17187 0.453125,0 0.828125,0.15625 0.375,0.14062 0.625,0.42187 0.28125,0.32813 0.4375,0.85938 0.171875,0.51562 0.203125,1.21875 z m 4.234375,1.14063 q 0,0.82812 -0.15625,1.45312 -0.140625,0.625 -0.4375,1 -0.265625,0.32813 -0.640625,0.5 -0.375,0.17188 -0.859375,0.17188 -0.5,0 -0.890625,-0.17188 -0.375,-0.17187 -0.625,-0.53125 -0.25,-0.3125 -0.40625,-0.79687 -0.15625,-0.48438 -0.203125,-1.10938 l 4.21875,-3.17187 q 0,0.25 0,0.5 0,0.25 0,0.46875 z"
       fill-rule="nonzero"
       id="path57" />
    <path
       fill="#7efc7e"
       d="m 152.48,205.04468 v 0 c 0,-2.04393 1.65694,-3.70087 3.70085,-3.70087 h 15.84238 v 0 c 0.98154,0 1.92287,0.38993 2.61691,1.08397 0.69405,0.69405 1.08396,1.63536 1.08396,2.6169 v 14.80299 c 0,2.04393 -1.65694,3.70087 -3.70087,3.70087 h -15.84238 c -2.04391,0 -3.70085,-1.65694 -3.70085,-3.70087 z"
       fill-rule="evenodd"
       id="path59" />
    <path
       stroke="#1c4587"
       stroke-width="2"
       stroke-linejoin="round"
       stroke-linecap="butt"
       d="m 152.48,205.04468 v 0 c 0,-2.04393 1.65694,-3.70087 3.70085,-3.70087 h 15.84238 v 0 c 0.98154,0 1.92287,0.38993 2.61691,1.08397 0.69405,0.69405 1.08396,1.63536 1.08396,2.6169 v 14.80299 c 0,2.04393 -1.65694,3.70087 -3.70087,3.70087 h -15.84238 c -2.04391,0 -3.70085,-1.65694 -3.70085,-3.70087 z"
       fill-rule="evenodd"
       id="path61" />
    <path
       fill="#1c4587"
       d="m 165.81676,219.36618 v -13.26562 h -0.14063 l -5.45312,2.03125 v 1.92187 l 3.39062,-1.25 v 10.5625 z"
       fill-rule="nonzero"
       id="path63" />
    <path
       fill="#000000"
       fill-opacity="0"
       d="m 91.91342,221.0447 v 0 c 0,-2.04393 1.656929,-3.70087 3.700859,-3.70087 h 29.291191 c 0.98153,0 1.92286,0.38993 2.61691,1.08397 0.69403,0.69405 1.08396,1.63538 1.08396,2.6169 v 14.80301 c 0,2.04391 -1.65694,3.70085 -3.70087,3.70085 H 95.614279 c -2.04393,0 -3.700859,-1.65694 -3.700859,-3.70085 z"
       fill-rule="evenodd"
       id="path65" />
    <path
       fill="#1c4587"
       d="m 108.48058,235.84932 q -0.875,0 -1.53125,-0.42188 -0.65625,-0.42187 -1.01562,-1.23437 -0.35938,-0.82813 -0.35938,-2.01563 0,-1.1875 0.25,-2.28125 0.25,-1.09375 0.70313,-2.03125 0.46875,-0.9375 1.10937,-1.64062 0.65625,-0.70313 1.45313,-1.09375 0.8125,-0.39063 1.75,-0.39063 0.73437,0 1.26562,0.28125 0.53125,0.26563 0.875,0.71875 0.35938,0.4375 0.57813,0.9375 h 0.0937 l 0.625,-1.73437 h 1.23437 l -2.26562,10.70312 h -1.29688 l 0.29688,-2.07812 h -0.0781 q -0.4375,0.59375 -1.01562,1.10937 -0.5625,0.51563 -1.23438,0.84375 -0.67187,0.32813 -1.4375,0.32813 z m 0.51563,-1.35938 q 0.75,0 1.48437,-0.54687 0.75,-0.54688 1.32813,-1.48438 0.59375,-0.95312 0.90625,-2.14062 0.15625,-0.57813 0.20312,-1.04688 0.0625,-0.48437 0.0625,-0.90625 0,-1.01562 -0.53125,-1.625 -0.53125,-0.625 -1.45312,-0.625 -0.64063,0 -1.21875,0.32813 -0.57813,0.32812 -1.04688,0.90625 -0.46875,0.57812 -0.79687,1.34375 -0.32813,0.76562 -0.51563,1.67187 -0.17187,0.89063 -0.17187,1.84375 0,1.125 0.45312,1.70313 0.46875,0.57812 1.29688,0.57812 z"
       fill-rule="nonzero"
       id="path67" />
    <path
       fill="#000000"
       fill-opacity="0"
       d="m 260.9134,120.64574 v 0 c 0,-2.04393 1.65692,-3.70085 3.70087,-3.70085 h 92.91324 c 0.9815,0 1.92285,0.3899 2.61688,1.08395 0.69406,0.69404 1.08395,1.63537 1.08395,2.6169 v 14.80301 c 0,2.04393 -1.65692,3.70086 -3.70083,3.70086 h -92.91324 c -2.04395,0 -3.70087,-1.65693 -3.70087,-3.70086 z"
       fill-rule="evenodd"
       id="path69" />
    <path
       fill="#1c4587"
       d="m 295.69977,135.45036 q -0.75,0 -1.3125,-0.26563 -0.54688,-0.28125 -0.90625,-0.71875 -0.35938,-0.4375 -0.5625,-0.95312 h -0.0937 l -0.64063,1.73437 h -1.23437 l 3.23437,-15.20311 h 1.60938 l -0.78125,3.67187 q -0.125,0.65625 -0.28125,1.29688 -0.15625,0.64062 -0.28125,1.09375 -0.125,0.4375 -0.17188,0.51562 h 0.0781 q 0.46875,-0.59375 1.01562,-1.10937 0.54688,-0.51563 1.1875,-0.82813 0.65625,-0.3125 1.42188,-0.3125 0.90625,0 1.5625,0.42188 0.67187,0.40625 1.03125,1.21875 0.375,0.8125 0.375,1.99999 0,1.15625 -0.23438,2.25 -0.23437,1.09375 -0.67187,2.03125 -0.4375,0.9375 -1.07813,1.64063 -0.625,0.70312 -1.45312,1.10937 -0.82813,0.40625 -1.8125,0.40625 z m -0.10938,-1.35938 q 0.67188,0 1.23438,-0.34375 0.57812,-0.34375 1.03125,-0.92187 0.46875,-0.59375 0.78125,-1.375 0.3125,-0.78125 0.46875,-1.65625 0.17187,-0.89063 0.17187,-1.79687 0,-1.125 -0.45312,-1.70312 -0.45313,-0.57813 -1.34375,-0.57813 -0.46875,0 -0.95313,0.23438 -0.48437,0.21875 -0.9375,0.64062 -0.45312,0.42188 -0.84375,1 -0.375,0.56249 -0.67187,1.24999 -0.28125,0.67188 -0.45313,1.4375 -0.15625,0.76563 -0.15625,1.54688 0,1.03125 0.51563,1.65625 0.53125,0.60937 1.60937,0.60937 z m 10.63868,1.15625 7.95312,-14.28124 h 1.67188 l -7.95313,14.28124 z m 11.52734,0.20313 q -1.0625,0 -1.76562,-0.51563 -0.70313,-0.51562 -0.70313,-1.76562 0,-0.3125 0.0312,-0.65625 0.0469,-0.35938 0.125,-0.75 l 1.26563,-5.98437 h -1.65625 l 0.15625,-0.75 1.78125,-0.6875 1.17187,-2.26562 h 0.96875 l -0.54687,2.46875 h 2.76562 l -0.26562,1.23437 h -2.73438 l -1.26562,6.01562 q -0.0781,0.26562 -0.14063,0.57812 -0.0469,0.3125 -0.0469,0.59375 0,0.5 0.25,0.82813 0.26562,0.3125 0.85937,0.3125 0.375,0 0.70313,-0.0625 0.34375,-0.0625 0.71875,-0.1875 v 1.25 q -0.23438,0.10937 -0.73438,0.21875 -0.5,0.125 -0.9375,0.125 z m 7.0918,-0.20313 1.9375,-9.10936 q 0.14062,-0.60938 0.28125,-1.23438 0.14062,-0.625 0.28125,-1.17187 0.14062,-0.54688 0.25,-0.92188 -0.29688,0.3125 -0.60938,0.54688 -0.3125,0.23437 -0.71875,0.5 l -1.85937,1.17187 -0.76563,-1.21875 4.46875,-2.84375 h 1.42188 l -3.04688,14.28124 z"
       fill-rule="nonzero"
       id="path71" />
    <path
       fill="#000000"
       fill-opacity="0"
       d="m 200.99263,239.95546 v 0 c 0,-2.04393 1.65694,-3.70087 3.70087,-3.70087 h 51.74788 c 0.98153,0 1.92285,0.38991 2.61691,1.08396 0.69403,0.69404 1.08395,1.63537 1.08395,2.61691 v 14.80299 c 0,2.04395 -1.65695,3.70087 -3.70086,3.70087 H 204.6935 v 0 c -2.04393,0 -3.70087,-1.65692 -3.70087,-3.70087 z"
       fill-rule="evenodd"
       id="path73" />
    <path
       fill="#1c4587"
       d="m 215.19633,254.76009 q -0.75,0 -1.3125,-0.26563 -0.54688,-0.28125 -0.90625,-0.71875 -0.35938,-0.4375 -0.5625,-0.95312 h -0.0937 l -0.64063,1.73437 h -1.23437 l 3.23437,-15.20312 h 1.60938 l -0.78125,3.67187 q -0.125,0.65625 -0.28125,1.29688 -0.15625,0.64062 -0.28125,1.09375 -0.125,0.4375 -0.17188,0.51562 h 0.0781 q 0.46875,-0.59375 1.01562,-1.10937 0.54688,-0.51563 1.1875,-0.82813 0.65625,-0.3125 1.42188,-0.3125 0.90625,0 1.5625,0.42188 0.67187,0.40625 1.03125,1.21875 0.375,0.8125 0.375,2 0,1.15625 -0.23438,2.25 -0.23437,1.09375 -0.67187,2.03125 -0.4375,0.9375 -1.07813,1.64062 -0.625,0.70313 -1.45312,1.10938 -0.82813,0.40625 -1.8125,0.40625 z m -0.10938,-1.35938 q 0.67188,0 1.23438,-0.34375 0.57812,-0.34375 1.03125,-0.92187 0.46875,-0.59375 0.78125,-1.375 0.3125,-0.78125 0.46875,-1.65625 0.17187,-0.89063 0.17187,-1.79688 0,-1.125 -0.45312,-1.70312 -0.45313,-0.57813 -1.34375,-0.57813 -0.46875,0 -0.95313,0.23438 -0.48437,0.21875 -0.9375,0.64062 -0.45312,0.42188 -0.84375,1 -0.375,0.5625 -0.67187,1.25 -0.28125,0.67188 -0.45313,1.4375 -0.15625,0.76563 -0.15625,1.54688 0,1.03125 0.51563,1.65625 0.53125,0.60937 1.60937,0.60937 z m 10.63868,1.15625 7.95312,-14.28125 h 1.67188 l -7.95313,14.28125 z m 11.52734,0.20313 q -1.0625,0 -1.76562,-0.51563 -0.70313,-0.51562 -0.70313,-1.76562 0,-0.3125 0.0312,-0.65625 0.0469,-0.35938 0.125,-0.75 l 1.26563,-5.98438 h -1.65625 l 0.15625,-0.75 1.78125,-0.6875 1.17187,-2.26562 h 0.96875 l -0.54687,2.46875 h 2.76562 l -0.26562,1.23437 h -2.73438 l -1.26562,6.01563 q -0.0781,0.26562 -0.14063,0.57812 -0.0469,0.3125 -0.0469,0.59375 0,0.5 0.25,0.82813 0.26562,0.3125 0.85937,0.3125 0.375,0 0.70313,-0.0625 0.34375,-0.0625 0.71875,-0.1875 v 1.25 q -0.23438,0.10937 -0.73438,0.21875 -0.5,0.125 -0.9375,0.125 z m 7.0918,-0.20313 1.9375,-9.10937 q 0.14062,-0.60938 0.28125,-1.23438 0.14062,-0.625 0.28125,-1.17187 0.14062,-0.54688 0.25,-0.92188 -0.29688,0.3125 -0.60938,0.54688 -0.3125,0.23437 -0.71875,0.5 l -1.85937,1.17187 -0.76563,-1.21875 4.46875,-2.84375 h 1.42188 l -3.04688,14.28125 z"
       fill-rule="nonzero"
       id="path75" />
    <path
       fill="#7efc7e"
       d="m 280.47998,205.04468 v 0 c 0,-2.04393 1.65695,-3.70087 3.70087,-3.70087 h 15.84237 v 0 c 0.98154,0 1.92286,0.38993 2.61692,1.08397 0.69403,0.69405 1.08395,1.63536 1.08395,2.6169 v 14.80299 c 0,2.04393 -1.65692,3.70087 -3.70087,3.70087 h -15.84237 c -2.04392,0 -3.70087,-1.65694 -3.70087,-3.70087 z"
       fill-rule="evenodd"
       id="path77" />
    <path
       stroke="#1c4587"
       stroke-width="2"
       stroke-linejoin="round"
       stroke-linecap="butt"
       d="m 280.47998,205.04468 v 0 c 0,-2.04393 1.65695,-3.70087 3.70087,-3.70087 h 15.84237 v 0 c 0.98154,0 1.92286,0.38993 2.61692,1.08397 0.69403,0.69405 1.08395,1.63536 1.08395,2.6169 v 14.80299 c 0,2.04393 -1.65692,3.70087 -3.70087,3.70087 h -15.84237 c -2.04392,0 -3.70087,-1.65694 -3.70087,-3.70087 z"
       fill-rule="evenodd"
       id="path79" />
    <path
       fill="#1c4587"
       d="m 296.36362,219.36618 v -1.76562 h -6.17187 l 2.9375,-3.14063 q 0.59375,-0.625 1.07812,-1.20312 0.5,-0.59375 0.875,-1.15625 0.34375,-0.57813 0.54688,-1.15625 0.21875,-0.59375 0.21875,-1.21875 0,-0.84375 -0.28125,-1.53125 -0.26563,-0.70313 -0.79688,-1.20313 -0.51562,-0.5 -1.29687,-0.78125 -0.76563,-0.29687 -1.73438,-0.29687 -1.04687,0 -1.89062,0.34375 -0.84375,0.34375 -1.42188,0.90625 -0.59375,0.57812 -0.92187,1.35937 -0.3125,0.76563 -0.3125,1.625 h 2.1875 q 0,-0.57812 0.14062,-1.01562 0.15625,-0.45313 0.45313,-0.78125 0.28125,-0.29688 0.70312,-0.45313 0.42188,-0.17187 1.01563,-0.17187 0.45312,0 0.8125,0.15625 0.375,0.15625 0.64062,0.42187 0.26563,0.28125 0.39063,0.67188 0.14062,0.375 0.14062,0.82812 0,0.35938 -0.0937,0.70313 -0.0937,0.32812 -0.3125,0.71875 -0.21875,0.39062 -0.59375,0.85937 -0.35937,0.46875 -0.89062,1.0625 l -4.32813,4.70313 v 1.51562 z"
       fill-rule="nonzero"
       id="path81" />
    <path
       fill="#7efc7e"
       d="m 416.47998,205.04468 v 0 c 0,-2.04393 1.65695,-3.70087 3.70087,-3.70087 h 15.84237 v 0 c 0.98154,0 1.92286,0.38993 2.61692,1.08397 0.69403,0.69405 1.08395,1.63536 1.08395,2.6169 v 14.80299 c 0,2.04393 -1.65692,3.70087 -3.70087,3.70087 h -15.84237 c -2.04392,0 -3.70087,-1.65694 -3.70087,-3.70087 z"
       fill-rule="evenodd"
       id="path83" />
    <path
       stroke="#1c4587"
       stroke-width="2"
       stroke-linejoin="round"
       stroke-linecap="butt"
       d="m 416.47998,205.04468 v 0 c 0,-2.04393 1.65695,-3.70087 3.70087,-3.70087 h 15.84237 v 0 c 0.98154,0 1.92286,0.38993 2.61692,1.08397 0.69403,0.69405 1.08395,1.63536 1.08395,2.6169 v 14.80299 c 0,2.04393 -1.65692,3.70087 -3.70087,3.70087 h -15.84237 c -2.04392,0 -3.70087,-1.65694 -3.70087,-3.70087 z"
       fill-rule="evenodd"
       id="path85" />
    <path
       fill="#1c4587"
       d="m 426.223,211.7568 v 1.70312 h 1.29688 q 0.5625,0 1.01562,0.14063 0.46875,0.125 0.79688,0.39062 0.32812,0.28125 0.5,0.6875 0.17187,0.40625 0.17187,0.98438 0,0.5 -0.15625,0.90625 -0.14062,0.39062 -0.42187,0.65625 -0.29688,0.28125 -0.71875,0.42187 -0.42188,0.14063 -0.95313,0.14063 -0.48437,0 -0.89062,-0.14063 -0.40625,-0.15625 -0.70313,-0.40625 -0.29687,-0.26562 -0.45312,-0.625 -0.15625,-0.375 -0.15625,-0.8125 h -2.1875 q 0,0.9375 0.35937,1.64063 0.35938,0.6875 0.96875,1.15625 0.59375,0.46875 1.39063,0.71875 0.79687,0.23437 1.65625,0.23437 0.9375,0 1.75,-0.26562 0.82812,-0.26563 1.42187,-0.76563 0.59375,-0.48437 0.9375,-1.20312 0.34375,-0.73438 0.34375,-1.65625 0,-0.5 -0.125,-0.96875 -0.10937,-0.46875 -0.375,-0.89063 -0.26562,-0.39062 -0.6875,-0.71875 -0.40625,-0.32812 -1,-0.53125 0.5,-0.21875 0.875,-0.54687 0.375,-0.32813 0.60938,-0.70313 0.25,-0.375 0.375,-0.78125 0.125,-0.42187 0.125,-0.82812 0,-0.9375 -0.3125,-1.625 -0.3125,-0.70313 -0.875,-1.1875 -0.54688,-0.48438 -1.34375,-0.71875 -0.78125,-0.25 -1.71875,-0.25 -0.92188,0 -1.70313,0.28125 -0.76562,0.26562 -1.32812,0.75 -0.5625,0.5 -0.89063,1.17187 -0.3125,0.65625 -0.3125,1.45313 h 2.17188 q 0,-0.4375 0.15625,-0.78125 0.17187,-0.34375 0.45312,-0.59375 0.26563,-0.25 0.64063,-0.375 0.39062,-0.125 0.82812,-0.125 0.5,0 0.89063,0.14062 0.39062,0.125 0.64062,0.375 0.26563,0.26563 0.39063,0.64063 0.14062,0.375 0.14062,0.84375 0,0.4375 -0.15625,0.8125 -0.14062,0.375 -0.39062,0.64062 -0.28125,0.28125 -0.71875,0.45313 -0.4375,0.15625 -1.03125,0.15625 z"
       fill-rule="nonzero"
       id="path87" />
    <path
       fill="#000000"
       fill-opacity="0"
       d="m 200.99213,189.0447 v 0 c 0,-2.04393 1.65694,-3.70087 3.70087,-3.70087 h 48.47229 c 0.98152,0 1.92285,0.38993 2.61689,1.08397 0.69405,0.69405 1.08397,1.63538 1.08397,2.6169 v 14.80301 c 0,2.04391 -1.65693,3.70085 -3.70086,3.70085 H 204.693 v 0 c -2.04393,0 -3.70087,-1.65694 -3.70087,-3.70085 z"
       fill-rule="evenodd"
       id="path89" />
    <path
       fill="#1c4587"
       d="m 227.14984,203.84932 q -0.875,0 -1.53125,-0.42188 -0.65625,-0.42187 -1.01563,-1.23437 -0.35937,-0.82813 -0.35937,-2.01563 0,-1.1875 0.25,-2.28125 0.25,-1.09375 0.70312,-2.03125 0.46875,-0.9375 1.10938,-1.64062 0.65625,-0.70313 1.45312,-1.09375 0.8125,-0.39063 1.75,-0.39063 0.73438,0 1.26563,0.28125 0.53125,0.26563 0.875,0.71875 0.35937,0.4375 0.57812,0.9375 h 0.0937 l 0.625,-1.73437 h 1.23438 l -2.26563,10.70312 h -1.29687 l 0.29687,-2.07812 h -0.0781 q -0.4375,0.59375 -1.01563,1.10937 -0.5625,0.51563 -1.23437,0.84375 -0.67188,0.32813 -1.4375,0.32813 z m 0.51562,-1.35938 q 0.75,0 1.48438,-0.54687 0.75,-0.54688 1.32812,-1.48438 0.59375,-0.95312 0.90625,-2.14062 0.15625,-0.57813 0.20313,-1.04688 0.0625,-0.48437 0.0625,-0.90625 0,-1.01562 -0.53125,-1.625 -0.53125,-0.625 -1.45313,-0.625 -0.64062,0 -1.21875,0.32813 -0.57812,0.32812 -1.04687,0.90625 -0.46875,0.57812 -0.79688,1.34375 -0.32812,0.76562 -0.51562,1.67187 -0.17188,0.89063 -0.17188,1.84375 0,1.125 0.45313,1.70313 0.46875,0.57812 1.29687,0.57812 z"
       fill-rule="nonzero"
       id="path91" />
    <path
       fill="#000000"
       fill-opacity="0"
       d="m 281.34708,157.0447 v 0 c 0,-2.04393 1.65695,-3.70087 3.70087,-3.70087 h 61.32269 c 0.98154,0 1.92285,0.38993 2.61691,1.08397 0.69403,0.69405 1.08396,1.63538 1.08396,2.6169 v 14.80301 c 0,2.04391 -1.65696,3.70085 -3.70087,3.70085 h -61.32269 c -2.04392,0 -3.70087,-1.65694 -3.70087,-3.70085 z"
       fill-rule="evenodd"
       id="path93" />
    <path
       fill="#1c4587"
       d="m 313.93,171.84932 q -0.875,0 -1.53125,-0.42188 -0.65625,-0.42187 -1.01563,-1.23437 -0.35937,-0.82813 -0.35937,-2.01563 0,-1.1875 0.25,-2.28125 0.25,-1.09375 0.70312,-2.03125 0.46875,-0.9375 1.10938,-1.64062 0.65625,-0.70313 1.45312,-1.09375 0.8125,-0.39063 1.75,-0.39063 0.73438,0 1.26563,0.28125 0.53125,0.26563 0.875,0.71875 0.35937,0.4375 0.57812,0.9375 h 0.0937 l 0.625,-1.73437 h 1.23438 l -2.26563,10.70312 h -1.29687 l 0.29687,-2.07812 h -0.0781 q -0.4375,0.59375 -1.01563,1.10937 -0.5625,0.51563 -1.23437,0.84375 -0.67188,0.32813 -1.4375,0.32813 z m 0.51562,-1.35938 q 0.75,0 1.48438,-0.54687 0.75,-0.54688 1.32812,-1.48438 0.59375,-0.95312 0.90625,-2.14062 0.15625,-0.57813 0.20313,-1.04688 0.0625,-0.48437 0.0625,-0.90625 0,-1.01562 -0.53125,-1.625 -0.53125,-0.625 -1.45313,-0.625 -0.64062,0 -1.21875,0.32813 -0.57812,0.32812 -1.04687,0.90625 -0.46875,0.57812 -0.79688,1.34375 -0.32812,0.76562 -0.51562,1.67187 -0.17188,0.89063 -0.17188,1.84375 0,1.125 0.45313,1.70313 0.46875,0.57812 1.29687,0.57812 z"
       fill-rule="nonzero"
       id="path95" />
    <path
       fill="#000000"
       fill-opacity="0"
       d="m 327.72424,189.0447 v 0 c 0,-2.04393 1.65695,-3.70087 3.70087,-3.70087 h 84.97623 c 0.98153,0 1.92285,0.38993 2.61691,1.08397 0.69403,0.69405 1.08395,1.63538 1.08395,2.6169 v 14.80301 c 0,2.04391 -1.65692,3.70085 -3.70086,3.70085 h -84.97623 c -2.04392,0 -3.70087,-1.65694 -3.70087,-3.70085 z"
       fill-rule="evenodd"
       id="path97" />
    <path
       fill="#1c4587"
       d="m 358.5421,203.84932 q -0.75,0 -1.3125,-0.26563 -0.54688,-0.28125 -0.90625,-0.71875 -0.35938,-0.4375 -0.5625,-0.95312 h -0.0937 l -0.64063,1.73437 h -1.23437 l 3.23437,-15.20312 h 1.60938 l -0.78125,3.67187 q -0.125,0.65625 -0.28125,1.29688 -0.15625,0.64062 -0.28125,1.09375 -0.125,0.4375 -0.17188,0.51562 h 0.0781 q 0.46875,-0.59375 1.01562,-1.10937 0.54688,-0.51563 1.1875,-0.82813 0.65625,-0.3125 1.42188,-0.3125 0.90625,0 1.5625,0.42188 0.67187,0.40625 1.03125,1.21875 0.375,0.8125 0.375,2 0,1.15625 -0.23438,2.25 -0.23437,1.09375 -0.67187,2.03125 -0.4375,0.9375 -1.07813,1.64062 -0.625,0.70313 -1.45312,1.10938 -0.82813,0.40625 -1.8125,0.40625 z m -0.10938,-1.35938 q 0.67188,0 1.23438,-0.34375 0.57812,-0.34375 1.03125,-0.92187 0.46875,-0.59375 0.78125,-1.375 0.3125,-0.78125 0.46875,-1.65625 0.17187,-0.89063 0.17187,-1.79688 0,-1.125 -0.45312,-1.70312 -0.45313,-0.57813 -1.34375,-0.57813 -0.46875,0 -0.95313,0.23438 -0.48437,0.21875 -0.9375,0.64062 -0.45312,0.42188 -0.84375,1 -0.375,0.5625 -0.67187,1.25 -0.28125,0.67188 -0.45313,1.4375 -0.15625,0.76563 -0.15625,1.54688 0,1.03125 0.51563,1.65625 0.53125,0.60937 1.60937,0.60937 z m 10.63868,1.15625 7.95312,-14.28125 h 1.67188 l -7.95313,14.28125 z m 11.52734,0.20313 q -1.0625,0 -1.76562,-0.51563 -0.70313,-0.51562 -0.70313,-1.76562 0,-0.3125 0.0312,-0.65625 0.0469,-0.35938 0.125,-0.75 l 1.26563,-5.98438 h -1.65625 l 0.15625,-0.75 1.78125,-0.6875 1.17187,-2.26562 h 0.96875 l -0.54687,2.46875 h 2.76562 l -0.26562,1.23437 h -2.73438 l -1.26562,6.01563 q -0.0781,0.26562 -0.14063,0.57812 -0.0469,0.3125 -0.0469,0.59375 0,0.5 0.25,0.82813 0.26562,0.3125 0.85937,0.3125 0.375,0 0.70313,-0.0625 0.34375,-0.0625 0.71875,-0.1875 v 1.25 q -0.23438,0.10937 -0.73438,0.21875 -0.5,0.125 -0.9375,0.125 z m 7.0918,-0.20313 1.9375,-9.10937 q 0.14062,-0.60938 0.28125,-1.23438 0.14062,-0.625 0.28125,-1.17187 0.14062,-0.54688 0.25,-0.92188 -0.29688,0.3125 -0.60938,0.54688 -0.3125,0.23437 -0.71875,0.5 l -1.85937,1.17187 -0.76563,-1.21875 4.46875,-2.84375 h 1.42188 l -3.04688,14.28125 z"
       fill-rule="nonzero"
       id="path99" />
    <path
       fill="#000000"
       fill-opacity="0"
       d="m 440.47998,157.04468 v 0 c 0,-2.04393 1.65695,-3.70087 3.70087,-3.70087 h 15.84237 v 0 c 0.98154,0 1.92286,0.38993 2.61692,1.08397 0.69403,0.69405 1.08395,1.63536 1.08395,2.6169 v 14.80299 c 0,2.04393 -1.65692,3.70087 -3.70087,3.70087 h -15.84237 c -2.04392,0 -3.70087,-1.65694 -3.70087,-3.70087 z"
       fill-rule="evenodd"
       id="path101" />
    <path
       fill="#1c4587"
       d="m 451.63818,171.8493 q -0.75,0 -1.3125,-0.26563 -0.54688,-0.28125 -0.90625,-0.71875 -0.35938,-0.4375 -0.5625,-0.95312 h -0.0937 l -0.64063,1.73437 h -1.23437 l 3.23437,-15.20312 h 1.60938 l -0.78125,3.67187 q -0.125,0.65625 -0.28125,1.29688 -0.15625,0.64062 -0.28125,1.09375 -0.125,0.4375 -0.17188,0.51562 h 0.0781 q 0.46875,-0.59375 1.01562,-1.10937 0.54688,-0.51563 1.1875,-0.82813 0.65625,-0.3125 1.42188,-0.3125 0.90625,0 1.5625,0.42188 0.67187,0.40625 1.03125,1.21875 0.375,0.8125 0.375,2 0,1.15625 -0.23438,2.25 -0.23437,1.09375 -0.67187,2.03125 -0.4375,0.9375 -1.07813,1.64062 -0.625,0.70313 -1.45312,1.10938 -0.82813,0.40625 -1.8125,0.40625 z m -0.10938,-1.35938 q 0.67188,0 1.23438,-0.34375 0.57812,-0.34375 1.03125,-0.92187 0.46875,-0.59375 0.78125,-1.375 0.3125,-0.78125 0.46875,-1.65625 0.17187,-0.89063 0.17187,-1.79688 0,-1.125 -0.45312,-1.70312 -0.45313,-0.57813 -1.34375,-0.57813 -0.46875,0 -0.95313,0.23438 -0.48437,0.21875 -0.9375,0.64062 -0.45312,0.42188 -0.84375,1 -0.375,0.5625 -0.67187,1.25 -0.28125,0.67188 -0.45313,1.4375 -0.15625,0.76563 -0.15625,1.54688 0,1.03125 0.51563,1.65625 0.53125,0.60937 1.60937,0.60937 z"
       fill-rule="nonzero"
       id="path103" />
    <path
       fill="#000000"
       fill-opacity="0"
       d="m 57.31496,287.50662 v 0 c 0,-2.04391 1.656933,-3.70084 3.700863,-3.70084 h 31.905365 c 0.981529,0 1.922852,0.3899 2.616898,1.08396 0.694046,0.69403 1.083961,1.63537 1.083961,2.61688 v 14.80301 c 0,2.04394 -1.656929,3.70087 -3.700859,3.70087 H 61.015823 c -2.04393,0 -3.700863,-1.65693 -3.700863,-3.70087 z"
       fill-rule="evenodd"
       id="path105" />
    <path
       fill="#1c4587"
       d="m 63.75268,302.10812 7.953129,-14.28125 h 1.671875 l -7.953125,14.28125 z m 11.527348,0.20312 q -1.0625,0 -1.765625,-0.51562 -0.703125,-0.51563 -0.703125,-1.76563 0,-0.3125 0.03125,-0.65625 0.04687,-0.35937 0.125,-0.75 l 1.265625,-5.98437 h -1.65625 l 0.15625,-0.75 1.78125,-0.6875 1.171875,-2.26563 h 0.96875 l -0.546875,2.46875 h 2.765625 l -0.265625,1.23438 h -2.734375 l -1.265625,6.01562 q -0.07813,0.26563 -0.140625,0.57813 -0.04687,0.3125 -0.04687,0.59375 0,0.5 0.25,0.82812 0.265625,0.3125 0.859375,0.3125 0.375,0 0.703125,-0.0625 0.34375,-0.0625 0.71875,-0.1875 v 1.25 q -0.234375,0.10938 -0.734375,0.21875 -0.5,0.125 -0.9375,0.125 z m 7.091797,-0.20312 1.9375,-9.10938 q 0.140625,-0.60937 0.28125,-1.23437 0.140625,-0.625 0.28125,-1.17188 0.140625,-0.54687 0.25,-0.92187 -0.296875,0.3125 -0.609375,0.54687 -0.3125,0.23438 -0.71875,0.5 l -1.859375,1.17188 -0.765625,-1.21875 4.46875,-2.84375 h 1.421875 l -3.046875,14.28125 z"
       fill-rule="nonzero"
       id="path107" />
    <path
       fill="#000000"
       fill-opacity="0"
       d="m 145.31496,231.2363 v 0 c 0,-2.04393 1.65694,-3.70087 3.70087,-3.70087 h 31.90536 c 0.98152,0 1.92285,0.38991 2.6169,1.08396 0.69405,0.69404 1.08395,1.63537 1.08395,2.61691 v 14.80299 c 0,2.04393 -1.65692,3.70087 -3.70085,3.70087 h -31.90536 c -2.04393,0 -3.70087,-1.65694 -3.70087,-3.70087 z"
       fill-rule="evenodd"
       id="path109" />
    <path
       fill="#1c4587"
       d="m 151.75269,245.8378 7.95312,-14.28125 h 1.67188 l -7.95313,14.28125 z m 11.52734,0.20312 q -1.0625,0 -1.76562,-0.51562 -0.70313,-0.51563 -0.70313,-1.76563 0,-0.3125 0.0312,-0.65625 0.0469,-0.35937 0.125,-0.75 l 1.26563,-5.98437 h -1.65625 l 0.15625,-0.75 1.78125,-0.6875 1.17187,-2.26563 h 0.96875 l -0.54687,2.46875 h 2.76562 l -0.26562,1.23438 h -2.73438 l -1.26562,6.01562 q -0.0781,0.26563 -0.14063,0.57813 -0.0469,0.3125 -0.0469,0.59375 0,0.5 0.25,0.82812 0.26562,0.3125 0.85937,0.3125 0.375,0 0.70313,-0.0625 0.34375,-0.0625 0.71875,-0.1875 v 1.25 q -0.23438,0.10938 -0.73438,0.21875 -0.5,0.125 -0.9375,0.125 z m 7.0918,-0.20312 1.9375,-9.10938 q 0.14063,-0.60937 0.28125,-1.23437 0.14063,-0.625 0.28125,-1.17188 0.14063,-0.54687 0.25,-0.92187 -0.29687,0.3125 -0.60937,0.54687 -0.3125,0.23438 -0.71875,0.5 l -1.85938,1.17188 -0.76562,-1.21875 4.46875,-2.84375 h 1.42187 l -3.04687,14.28125 z"
       fill-rule="nonzero"
       id="path111" />
    <path
       fill="#000000"
       fill-opacity="0"
       d="m 273.31497,231.2363 v 0 c 0,-2.04393 1.65692,-3.70087 3.70084,-3.70087 h 31.90536 c 0.98154,0 1.92288,0.38991 2.61691,1.08396 0.69407,0.69404 1.08396,1.63537 1.08396,2.61691 v 14.80299 c 0,2.04393 -1.65692,3.70087 -3.70087,3.70087 h -31.90536 c -2.04392,0 -3.70084,-1.65694 -3.70084,-3.70087 z"
       fill-rule="evenodd"
       id="path113" />
    <path
       fill="#1c4587"
       d="m 279.7527,245.8378 7.95312,-14.28125 h 1.67188 l -7.95313,14.28125 z m 11.52734,0.20312 q -1.0625,0 -1.76562,-0.51562 -0.70313,-0.51563 -0.70313,-1.76563 0,-0.3125 0.0312,-0.65625 0.0469,-0.35937 0.125,-0.75 l 1.26563,-5.98437 h -1.65625 l 0.15625,-0.75 1.78125,-0.6875 1.17187,-2.26563 h 0.96875 l -0.54687,2.46875 h 2.76562 l -0.26562,1.23438 h -2.73438 l -1.26562,6.01562 q -0.0781,0.26563 -0.14063,0.57813 -0.0469,0.3125 -0.0469,0.59375 0,0.5 0.25,0.82812 0.26562,0.3125 0.85937,0.3125 0.375,0 0.70313,-0.0625 0.34375,-0.0625 0.71875,-0.1875 v 1.25 q -0.23438,0.10938 -0.73438,0.21875 -0.5,0.125 -0.9375,0.125 z m 7.0918,-0.20312 1.9375,-9.10938 q 0.14063,-0.60937 0.28125,-1.23437 0.14063,-0.625 0.28125,-1.17188 0.14063,-0.54687 0.25,-0.92187 -0.29687,0.3125 -0.60937,0.54687 -0.3125,0.23438 -0.71875,0.5 l -1.85938,1.17188 -0.76562,-1.21875 4.46875,-2.84375 h 1.42187 l -3.04687,14.28125 z"
       fill-rule="nonzero"
       id="path115" />
  </g>
</svg>
