<?xml version="1.0" encoding="UTF-8" standalone="no"?>
<svg
   version="1.1"
   viewBox="0 0 243.13731 134.64598"
   fill="none"
   stroke="none"
   stroke-linecap="square"
   stroke-miterlimit="10"
   id="svg59"
   sodipodi:docname="tdfa_optimized.svg"
   width="243.13731"
   height="134.64598"
   inkscape:version="1.1.1 (3bf5ae0d25, 2021-09-20)"
   xmlns:inkscape="http://www.inkscape.org/namespaces/inkscape"
   xmlns:sodipodi="http://sodipodi.sourceforge.net/DTD/sodipodi-0.dtd"
   xmlns="http://www.w3.org/2000/svg"
   xmlns:svg="http://www.w3.org/2000/svg">
  <defs
     id="defs63">
    <clipPath
       clipPathUnits="userSpaceOnUse"
       id="clipPath95">
      <rect
         style="font-variation-settings:normal;opacity:1;vector-effect:none;fill:#1c4587;fill-opacity:1;fill-rule:evenodd;stroke:none;stroke-width:1;stroke-linecap:butt;stroke-linejoin:miter;stroke-miterlimit:10;stroke-dasharray:none;stroke-dashoffset:0;stroke-opacity:1;-inkscape-stroke:none;stop-color:#000000;stop-opacity:1"
         id="rect97"
         width="243.13731"
         height="134.64598"
         x="144.09685"
         y="326.69156" />
    </clipPath>
  </defs>
  <sodipodi:namedview
     id="namedview61"
     pagecolor="#ffffff"
     bordercolor="#666666"
     borderopacity="1.0"
     inkscape:pageshadow="2"
     inkscape:pageopacity="0.0"
     inkscape:pagecheckerboard="0"
     showgrid="false"
     inkscape:zoom="1.3197917"
     inkscape:cx="336.03788"
     inkscape:cy="-56.827151"
     inkscape:window-width="1916"
     inkscape:window-height="1037"
     inkscape:window-x="0"
     inkscape:window-y="20"
     inkscape:window-maximized="1"
     inkscape:current-layer="svg59" />
  <clipPath
     id="gd3650c1d61_0_1057.0">
    <path
       d="M 0,0 H 960 V 540 H 0 Z"
       clip-rule="nonzero"
       id="path2" />
  </clipPath>
  <g
     clip-path="url(#clipPath95)"
     id="g57"
     transform="translate(-144.09685,-326.69156)">
    <path
       fill="#ffffff"
       d="M 0,0 H 960 V 540 H 0 Z"
       fill-rule="evenodd"
       id="path5" />
    <path
       fill="#000000"
       fill-opacity="0"
       d="M 32.72441,11.68504 H 927.27556 V 71.811019 H 32.72441 Z"
       fill-rule="evenodd"
       id="path7" />
    <path
       fill="#ffffff"
       d="m 52.708786,44.87479 q -4.546875,-1.3125 -6.609375,-3.203125 -2.0625,-1.90625 -2.0625,-4.703125 0,-3.15625 2.515625,-5.21875 2.53125,-2.0625 6.578125,-2.0625 2.75,0 4.90625,1.0625 2.15625,1.0625 3.328125,2.9375 1.1875,1.875 1.1875,4.09375 h -3.53125 q 0,-2.421875 -1.546875,-3.796875 -1.546875,-1.390625 -4.34375,-1.390625 -2.609375,0 -4.078125,1.140625 -1.453125,1.140625 -1.453125,3.1875 0,1.625 1.375,2.765625 1.390625,1.125 4.71875,2.0625 3.34375,0.9375 5.21875,2.0625 1.890625,1.125 2.796875,2.640625 0.90625,1.5 0.90625,3.53125 0,3.25 -2.53125,5.203125 -2.53125,1.953125 -6.78125,1.953125 -2.75,0 -5.140625,-1.046875 -2.375,-1.0625 -3.671875,-2.890625 -1.296875,-1.84375 -1.296875,-4.171875 h 3.546875 q 0,2.421875 1.78125,3.828125 1.796875,1.40625 4.78125,1.40625 2.796875,0 4.28125,-1.140625 1.484375,-1.140625 1.484375,-3.09375 0,-1.96875 -1.375,-3.03125 -1.375,-1.078125 -4.984375,-2.125 z m 26.146683,9.9375 q -1.984375,2.328125 -5.8125,2.328125 -3.171875,0 -4.84375,-1.84375 -1.65625,-1.84375 -1.671875,-5.453125 V 36.921665 h 3.390625 V 49.74979 q 0,4.515625 3.671875,4.515625 3.890625,0 5.171875,-2.90625 v -14.4375 h 3.40625 V 56.78104 h -3.234375 z m 25.286791,-7.734375 q 0,4.546875 -2.09375,7.3125 -2.093752,2.75 -5.625002,2.75 -3.765625,0 -5.8125,-2.65625 l -0.171875,2.296875 h -3.125 V 28.577915 h 3.40625 v 10.53125 q 2.046875,-2.5625 5.65625,-2.5625 3.624997,0 5.687497,2.734375 2.07813,2.734375 2.07813,7.5 z m -3.40625,-0.390625 q 0,-3.46875 -1.343752,-5.359375 -1.328125,-1.890625 -3.84375,-1.890625 -3.359375,0 -4.828125,3.125 v 8.578125 q 1.5625,3.125 4.859375,3.125 2.4375,0 3.796875,-1.890625 1.359377,-1.890625 1.359377,-5.6875 z m 10.87266,-9.765625 0.0937,2.203125 q 2.1875,-2.578125 5.89063,-2.578125 4.17187,0 5.67187,3.203125 0.98438,-1.4375 2.57813,-2.3125 1.59375,-0.890625 3.75,-0.890625 6.53125,0 6.64062,6.921875 v 13.3125 H 132.843 V 43.671665 q 0,-2.125 -0.96875,-3.171875 -0.96875,-1.0625 -3.26563,-1.0625 -1.89062,0 -3.14062,1.125 -1.25,1.125 -1.45313,3.03125 v 13.1875 h -3.40625 V 43.765415 q 0,-4.328125 -4.25,-4.328125 -3.34375,0 -4.5625,2.84375 v 14.5 h -3.40625 V 36.921665 Z m 42.0121,19.859375 q -0.29687,-0.59375 -0.46875,-2.09375 -2.375,2.453125 -5.65625,2.453125 -2.9375,0 -4.82812,-1.65625 -1.875,-1.65625 -1.875,-4.203125 0,-3.109375 2.35937,-4.828125 2.35938,-1.71875 6.64063,-1.71875 h 3.29687 v -1.5625 q 0,-1.765625 -1.0625,-2.828125 -1.0625,-1.0625 -3.14062,-1.0625 -1.8125,0 -3.04688,0.921875 -1.23437,0.921875 -1.23437,2.21875 h -3.40625 q 0,-1.484375 1.04687,-2.859375 1.0625,-1.390625 2.85938,-2.203125 1.8125,-0.8125 3.98437,-0.8125 3.4375,0 5.375,1.71875 1.95313,1.71875 2.03125,4.734375 v 9.140625 q 0,2.734375 0.6875,4.34375 v 0.296875 z m -5.625,-2.59375 q 1.59375,0 3.01563,-0.8125 1.4375,-0.828125 2.07812,-2.15625 v -4.078125 h -2.65625 q -6.25,0 -6.25,3.65625 0,1.59375 1.0625,2.5 1.07813,0.890625 2.75,0.890625 z m 18.4177,-22.078125 v 4.8125 h 3.71875 v 2.625 h -3.71875 v 12.3125 q 0,1.203125 0.5,1.796875 0.5,0.59375 1.6875,0.59375 0.59375,0 1.625,-0.21875 v 2.75 q -1.34375,0.359375 -2.60938,0.359375 -2.28125,0 -3.4375,-1.375 -1.15625,-1.375 -1.15625,-3.90625 v -12.3125 h -3.60937 v -2.625 h 3.60937 v -4.8125 z m 15.63975,22.265625 q 1.82813,0 3.1875,-1.09375 1.35938,-1.109375 1.5,-2.765625 h 3.21875 q -0.0937,1.71875 -1.1875,3.265625 -1.07812,1.53125 -2.89062,2.453125 -1.79688,0.90625 -3.82813,0.90625 -4.04687,0 -6.45312,-2.703125 -2.39063,-2.703125 -2.39063,-7.40625 v -0.5625 q 0,-2.90625 1.0625,-5.15625 1.0625,-2.265625 3.04688,-3.515625 2,-1.25 4.71875,-1.25 3.34375,0 5.54687,2 2.21875,2 2.375,5.203125 h -3.21875 q -0.14062,-1.921875 -1.45312,-3.15625 -1.3125,-1.25 -3.25,-1.25 -2.57813,0 -4.01563,1.859375 -1.42187,1.859375 -1.42187,5.390625 v 0.640625 q 0,3.4375 1.40625,5.296875 1.42187,1.84375 4.04687,1.84375 z M 197.1687,39.327915 q 2.25,-2.78125 5.875,-2.78125 6.29688,0 6.34375,7.109375 v 13.125 h -3.39062 V 43.640415 q -0.0156,-2.15625 -0.98438,-3.171875 -0.96875,-1.03125 -3,-1.03125 -1.65625,0 -2.90625,0.890625 -1.25,0.875 -1.9375,2.296875 v 14.15625 h -3.40625 V 28.577915 h 3.40625 z m 34.85634,17.8125 q -4.03125,0 -6.57812,-2.640625 -2.53125,-2.65625 -2.53125,-7.09375 v -0.625 q 0,-2.953125 1.125,-5.28125 1.14062,-2.328125 3.15625,-3.640625 2.03125,-1.3125 4.40625,-1.3125 3.875,0 6.01562,2.5625 2.15625,2.546875 2.15625,7.296875 v 1.421875 h -13.45312 q 0.0625,2.9375 1.70312,4.75 1.65625,1.796875 4.1875,1.796875 1.79688,0 3.04688,-0.734375 1.25,-0.734375 2.1875,-1.9375 l 2.0625,1.609375 q -2.48438,3.828125 -7.48438,3.828125 z M 231.60317,39.34354 q -2.0625,0 -3.45313,1.5 -1.39062,1.484375 -1.71875,4.1875 h 9.9375 v -0.25 q -0.14062,-2.59375 -1.39062,-4.015625 -1.25,-1.421875 -3.375,-1.421875 z m 18.76036,4.828125 4.40625,-7.25 h 3.96875 l -6.5,9.8125 6.70312,10.046875 h -3.9375 l -4.59375,-7.4375 -4.57812,7.4375 h -3.95313 l 6.70313,-10.046875 -6.5,-9.8125 h 3.92187 z m 16.56915,-12.0625 v 4.8125 h 3.71875 v 2.625 h -3.71875 v 12.3125 q 0,1.203125 0.5,1.796875 0.5,0.59375 1.6875,0.59375 0.59375,0 1.625,-0.21875 v 2.75 q -1.34375,0.359375 -2.60938,0.359375 -2.28125,0 -3.4375,-1.375 -1.15625,-1.375 -1.15625,-3.90625 v -12.3125 h -3.60937 v -2.625 h 3.60937 v -4.8125 z m 17.28039,7.859375 q -0.76562,-0.125 -1.67187,-0.125 -3.34375,0 -4.53125,2.84375 V 56.78104 H 274.6037 V 36.921665 h 3.3125 l 0.0469,2.296875 q 1.67188,-2.671875 4.75,-2.671875 0.98438,0 1.5,0.265625 z m 14.6428,16.8125 q -0.29688,-0.59375 -0.46875,-2.09375 -2.375,2.453125 -5.65625,2.453125 -2.9375,0 -4.82813,-1.65625 -1.875,-1.65625 -1.875,-4.203125 0,-3.109375 2.35938,-4.828125 2.35937,-1.71875 6.64062,-1.71875 h 3.29688 v -1.5625 q 0,-1.765625 -1.0625,-2.828125 -1.0625,-1.0625 -3.14063,-1.0625 -1.8125,0 -3.04687,0.921875 -1.23438,0.921875 -1.23438,2.21875 h -3.40625 q 0,-1.484375 1.04688,-2.859375 1.0625,-1.390625 2.85937,-2.203125 1.8125,-0.8125 3.98438,-0.8125 3.4375,0 5.375,1.71875 1.95312,1.71875 2.03125,4.734375 v 9.140625 q 0,2.734375 0.6875,4.34375 v 0.296875 z m -5.625,-2.59375 q 1.59375,0 3.01562,-0.8125 1.4375,-0.828125 2.07813,-2.15625 v -4.078125 h -2.65625 q -6.25,0 -6.25,3.65625 0,1.59375 1.0625,2.5 1.07812,0.890625 2.75,0.890625 z m 21.77707,0.1875 q 1.82812,0 3.1875,-1.09375 1.35937,-1.109375 1.5,-2.765625 h 3.21875 q -0.0937,1.71875 -1.1875,3.265625 -1.07813,1.53125 -2.89063,2.453125 -1.79687,0.90625 -3.82812,0.90625 -4.04688,0 -6.45313,-2.703125 -2.39062,-2.703125 -2.39062,-7.40625 v -0.5625 q 0,-2.90625 1.0625,-5.15625 1.0625,-2.265625 3.04687,-3.515625 2,-1.25 4.71875,-1.25 3.34375,0 5.54688,2 2.21875,2 2.375,5.203125 h -3.21875 q -0.14063,-1.921875 -1.45313,-3.15625 -1.3125,-1.25 -3.25,-1.25 -2.57812,0 -4.01562,1.859375 -1.42188,1.859375 -1.42188,5.390625 v 0.640625 q 0,3.4375 1.40625,5.296875 1.42188,1.84375 4.04688,1.84375 z m 16.3186,-22.265625 v 4.8125 h 3.71875 v 2.625 h -3.71875 v 12.3125 q 0,1.203125 0.5,1.796875 0.5,0.59375 1.6875,0.59375 0.59375,0 1.625,-0.21875 v 2.75 q -1.34375,0.359375 -2.60937,0.359375 -2.28125,0 -3.4375,-1.375 -1.15625,-1.375 -1.15625,-3.90625 v -12.3125 h -3.60938 v -2.625 h 3.60938 v -4.8125 z m 11.37412,24.671875 h -3.40625 V 36.921665 h 3.40625 z m -3.67188,-25.125 q 0,-0.828125 0.5,-1.390625 0.5,-0.578125 1.48438,-0.578125 1,0 1.51562,0.578125 0.51563,0.5625 0.51563,1.390625 0,0.828125 -0.51563,1.375 -0.51562,0.546875 -1.51562,0.546875 -0.98438,0 -1.48438,-0.546875 -0.5,-0.546875 -0.5,-1.375 z m 8.20123,15.015625 q 0,-2.921875 1.14063,-5.25 1.15625,-2.34375 3.20312,-3.609375 2.04688,-1.265625 4.67188,-1.265625 4.04687,0 6.54687,2.8125 2.51563,2.8125 2.51563,7.46875 v 0.25 q 0,2.890625 -1.10938,5.203125 -1.10937,2.296875 -3.17187,3.578125 -2.0625,1.28125 -4.75,1.28125 -4.03125,0 -6.54688,-2.796875 -2.5,-2.8125 -2.5,-7.4375 z m 3.40625,0.40625 q 0,3.296875 1.53125,5.296875 1.54688,2 4.10938,2 2.59375,0 4.10937,-2.03125 1.53125,-2.03125 1.53125,-5.671875 0,-3.265625 -1.5625,-5.296875 -1.54687,-2.03125 -4.10937,-2.03125 -2.51563,0 -4.0625,2 -1.54688,2 -1.54688,5.734375 z m 22.14331,-10.15625 0.10938,2.5 q 2.28125,-2.875 5.95312,-2.875 6.29688,0 6.34375,7.109375 v 13.125 H 381.7952 V 43.640415 q -0.0156,-2.15625 -0.98438,-3.171875 -0.96875,-1.03125 -3,-1.03125 -1.65625,0 -2.90625,0.890625 -1.25,0.875 -1.9375,2.296875 v 14.15625 h -3.40625 V 36.921665 Z"
       fill-rule="nonzero"
       id="path9" />
    <path
       fill="#7efc7e"
       d="m 177.34744,397.04468 v 0 c 0,-2.04391 1.65694,-3.70087 3.70087,-3.70087 h 15.84237 v 0 c 0.98153,0 1.92286,0.38993 2.6169,1.08396 0.69405,0.69406 1.08396,1.63537 1.08396,2.61691 v 14.80301 c 0,2.04391 -1.65693,3.70087 -3.70086,3.70087 h -15.84237 c -2.04393,0 -3.70087,-1.65696 -3.70087,-3.70087 z"
       fill-rule="evenodd"
       id="path11" />
    <path
       stroke="#1c4587"
       stroke-width="2"
       stroke-linejoin="round"
       stroke-linecap="butt"
       d="m 177.34744,397.04468 v 0 c 0,-2.04391 1.65694,-3.70087 3.70087,-3.70087 h 15.84237 v 0 c 0.98153,0 1.92286,0.38993 2.6169,1.08396 0.69405,0.69406 1.08396,1.63537 1.08396,2.61691 v 14.80301 c 0,2.04391 -1.65693,3.70087 -3.70086,3.70087 h -15.84237 c -2.04393,0 -3.70087,-1.65696 -3.70087,-3.70087 z"
       fill-rule="evenodd"
       id="path13" />
    <path
       fill="#1c4587"
       d="m 193.29358,406.30368 v -3.14063 q 0,-1.26562 -0.3125,-2.25 -0.29688,-0.98437 -0.84375,-1.65625 -0.5625,-0.65625 -1.35938,-1 -0.79687,-0.34375 -1.79687,-0.34375 -1.01563,0 -1.8125,0.34375 -0.79688,0.34375 -1.34375,1 -0.5625,0.67188 -0.85938,1.65625 -0.29687,0.98438 -0.29687,2.25 v 3.14063 q 0,1.28125 0.29687,2.26562 0.29688,0.96875 0.85938,1.625 0.5625,0.6875 1.35937,1.03125 0.8125,0.32813 1.8125,0.32813 1,0 1.79688,-0.32813 0.79687,-0.34375 1.34375,-1.03125 0.5625,-0.65625 0.85937,-1.625 0.29688,-0.98437 0.29688,-2.26562 z m -6.4375,-0.76563 q 0,-0.26562 0,-0.4375 0,-0.1875 0,-0.54687 v -1.78125 q 0,-0.8125 0.14062,-1.42188 0.15625,-0.60937 0.45313,-0.98437 0.26562,-0.34375 0.64062,-0.51563 0.375,-0.17187 0.89063,-0.17187 0.45312,0 0.82812,0.15625 0.375,0.14062 0.625,0.42187 0.28125,0.32813 0.4375,0.85938 0.17188,0.51562 0.20313,1.21875 z m 4.23437,1.14063 q 0,0.82812 -0.15625,1.45312 -0.14062,0.625 -0.4375,1 -0.26562,0.32813 -0.64062,0.5 -0.375,0.17188 -0.85938,0.17188 -0.5,0 -0.89062,-0.17188 -0.375,-0.17187 -0.625,-0.53125 -0.25,-0.3125 -0.40625,-0.79687 -0.15625,-0.48438 -0.20313,-1.10938 l 4.21875,-3.17187 q 0,0.25 0,0.5 0,0.25 0,0.46875 z"
       fill-rule="nonzero"
       id="path15" />
    <path
       fill="#7efc7e"
       d="m 296.47998,397.04468 v 0 c 0,-2.04391 1.65695,-3.70087 3.70087,-3.70087 h 15.84237 v 0 c 0.98154,0 1.92286,0.38993 2.61692,1.08396 0.69403,0.69406 1.08395,1.63537 1.08395,2.61691 v 14.80301 c 0,2.04391 -1.65692,3.70087 -3.70087,3.70087 h -15.84237 c -2.04392,0 -3.70087,-1.65696 -3.70087,-3.70087 z"
       fill-rule="evenodd"
       id="path17" />
    <path
       stroke="#1c4587"
       stroke-width="2"
       stroke-linejoin="round"
       stroke-linecap="butt"
       d="m 296.47998,397.04468 v 0 c 0,-2.04391 1.65695,-3.70087 3.70087,-3.70087 h 15.84237 v 0 c 0.98154,0 1.92286,0.38993 2.61692,1.08396 0.69403,0.69406 1.08395,1.63537 1.08395,2.61691 v 14.80301 c 0,2.04391 -1.65692,3.70087 -3.70087,3.70087 h -15.84237 c -2.04392,0 -3.70087,-1.65696 -3.70087,-3.70087 z"
       fill-rule="evenodd"
       id="path19" />
    <path
       fill="#1c4587"
       d="m 309.81674,411.36618 v -13.26563 h -0.14063 l -5.45312,2.03125 v 1.92188 l 3.39062,-1.25 v 10.5625 z"
       fill-rule="nonzero"
       id="path21" />
    <path
       fill="#000000"
       fill-opacity="0"
       d="m 185.34697,349.0447 v 0 c 0,-2.04395 1.65692,-3.70087 3.70085,-3.70087 h 51.40143 c 0.98154,0 1.92287,0.3899 2.61691,1.08396 0.69405,0.69403 1.08396,1.63537 1.08396,2.61691 v 14.80298 c 0,2.04394 -1.65694,3.70087 -3.70087,3.70087 h -51.40143 v 0 c -2.04393,0 -3.70085,-1.65693 -3.70085,-3.70087 z"
       fill-rule="evenodd"
       id="path23" />
    <path
       fill="#1c4587"
       d="m 212.96924,363.8493 q -0.875,0 -1.53125,-0.42187 -0.65625,-0.42188 -1.01562,-1.23438 -0.35938,-0.82812 -0.35938,-2.01562 0,-1.1875 0.25,-2.28125 0.25,-1.09375 0.70313,-2.03125 0.46875,-0.9375 1.10937,-1.64063 0.65625,-0.70312 1.45313,-1.09375 0.8125,-0.39062 1.75,-0.39062 0.73437,0 1.26562,0.28125 0.53125,0.26562 0.875,0.71875 0.35938,0.4375 0.57813,0.9375 h 0.0937 l 0.625,-1.73438 h 1.23437 l -2.26562,10.70313 h -1.29688 l 0.29688,-2.07813 h -0.0781 q -0.4375,0.59375 -1.01562,1.10938 -0.5625,0.51562 -1.23438,0.84375 -0.67187,0.32812 -1.4375,0.32812 z m 0.51563,-1.35937 q 0.75,0 1.48437,-0.54688 0.75,-0.54687 1.32813,-1.48437 0.59375,-0.95313 0.90625,-2.14063 0.15625,-0.57812 0.20312,-1.04687 0.0625,-0.48438 0.0625,-0.90625 0,-1.01563 -0.53125,-1.625 -0.53125,-0.625 -1.45312,-0.625 -0.64063,0 -1.21875,0.32812 -0.57813,0.32813 -1.04688,0.90625 -0.46875,0.57813 -0.79687,1.34375 -0.32813,0.76563 -0.51563,1.67188 -0.17187,0.89062 -0.17187,1.84375 0,1.125 0.45312,1.70312 0.46875,0.57813 1.29688,0.57813 z"
       fill-rule="nonzero"
       id="path25" />
    <path
       fill="#000000"
       fill-opacity="0"
       d="m 320.47998,349.04468 v 0 c 0,-2.04391 1.65695,-3.70087 3.70087,-3.70087 h 15.84237 v 0 c 0.98154,0 1.92286,0.38993 2.61692,1.08396 0.69403,0.69406 1.08395,1.63537 1.08395,2.61691 v 14.80301 c 0,2.04391 -1.65692,3.70087 -3.70087,3.70087 h -15.84237 c -2.04392,0 -3.70087,-1.65696 -3.70087,-3.70087 z"
       fill-rule="evenodd"
       id="path27" />
    <path
       fill="#1c4587"
       d="m 331.63818,363.8493 q -0.75,0 -1.3125,-0.26562 -0.54688,-0.28125 -0.90625,-0.71875 -0.35938,-0.4375 -0.5625,-0.95313 h -0.0937 l -0.64063,1.73438 h -1.23437 l 3.23437,-15.20313 h 1.60938 l -0.78125,3.67188 q -0.125,0.65625 -0.28125,1.29687 -0.15625,0.64063 -0.28125,1.09375 -0.125,0.4375 -0.17188,0.51563 h 0.0781 q 0.46875,-0.59375 1.01562,-1.10938 0.54688,-0.51562 1.1875,-0.82812 0.65625,-0.3125 1.42188,-0.3125 0.90625,0 1.5625,0.42187 0.67187,0.40625 1.03125,1.21875 0.375,0.8125 0.375,2 0,1.15625 -0.23438,2.25 -0.23437,1.09375 -0.67187,2.03125 -0.4375,0.9375 -1.07813,1.64063 -0.625,0.70312 -1.45312,1.10937 -0.82813,0.40625 -1.8125,0.40625 z m -0.10938,-1.35937 q 0.67188,0 1.23438,-0.34375 0.57812,-0.34375 1.03125,-0.92188 0.46875,-0.59375 0.78125,-1.375 0.3125,-0.78125 0.46875,-1.65625 0.17187,-0.89062 0.17187,-1.79687 0,-1.125 -0.45312,-1.70313 -0.45313,-0.57812 -1.34375,-0.57812 -0.46875,0 -0.95313,0.23437 -0.48437,0.21875 -0.9375,0.64063 -0.45312,0.42187 -0.84375,1 -0.375,0.5625 -0.67187,1.25 -0.28125,0.67187 -0.45313,1.4375 -0.15625,0.76562 -0.15625,1.54687 0,1.03125 0.51563,1.65625 0.53125,0.60938 1.60937,0.60938 z"
       fill-rule="nonzero"
       id="path29" />
    <path
       fill="#000000"
       fill-opacity="0"
       d="m 228.88449,383.95544 v 0 c 0,-2.04391 1.65692,-3.70084 3.70085,-3.70084 h 46.74001 c 0.98153,0 1.92285,0.3899 2.61691,1.08396 0.69403,0.69403 1.08395,1.63537 1.08395,2.61688 v 14.80301 c 0,2.04394 -1.65692,3.70087 -3.70086,3.70087 h -46.74001 c -2.04393,0 -3.70085,-1.65693 -3.70085,-3.70087 z"
       fill-rule="evenodd"
       id="path31" />
    <path
       fill="#1c4587"
       d="m 240.58426,398.76007 q -0.75,0 -1.3125,-0.26563 -0.54688,-0.28125 -0.90625,-0.71875 -0.35938,-0.4375 -0.5625,-0.95312 h -0.0937 l -0.64063,1.73437 h -1.23437 l 3.23437,-15.20312 h 1.60938 l -0.78125,3.67187 q -0.125,0.65625 -0.28125,1.29688 -0.15625,0.64062 -0.28125,1.09375 -0.125,0.4375 -0.17188,0.51562 h 0.0781 q 0.46875,-0.59375 1.01562,-1.10937 0.54688,-0.51563 1.1875,-0.82813 0.65625,-0.3125 1.42188,-0.3125 0.90625,0 1.5625,0.42188 0.67187,0.40625 1.03125,1.21875 0.375,0.8125 0.375,2 0,1.15625 -0.23438,2.25 -0.23437,1.09375 -0.67187,2.03125 -0.4375,0.9375 -1.07813,1.64062 -0.625,0.70313 -1.45312,1.10938 -0.82813,0.40625 -1.8125,0.40625 z m -0.10938,-1.35938 q 0.67188,0 1.23438,-0.34375 0.57812,-0.34375 1.03125,-0.92187 0.46875,-0.59375 0.78125,-1.375 0.3125,-0.78125 0.46875,-1.65625 0.17187,-0.89063 0.17187,-1.79688 0,-1.125 -0.45312,-1.70312 -0.45313,-0.57813 -1.34375,-0.57813 -0.46875,0 -0.95313,0.23438 -0.48437,0.21875 -0.9375,0.64062 -0.45312,0.42188 -0.84375,1 -0.375,0.5625 -0.67187,1.25 -0.28125,0.67188 -0.45313,1.4375 -0.15625,0.76563 -0.15625,1.54688 0,1.03125 0.51563,1.65625 0.53125,0.60937 1.60937,0.60937 z m 10.63868,1.15625 7.95312,-14.28125 h 1.67188 l -7.95313,14.28125 z m 11.52734,0.20313 q -1.0625,0 -1.76562,-0.51563 -0.70313,-0.51562 -0.70313,-1.76562 0,-0.3125 0.0312,-0.65625 0.0469,-0.35938 0.125,-0.75 l 1.26563,-5.98438 h -1.65625 l 0.15625,-0.75 1.78125,-0.6875 1.17187,-2.26562 h 0.96875 l -0.54687,2.46875 h 2.76562 l -0.26562,1.23437 h -2.73438 l -1.26562,6.01563 q -0.0781,0.26562 -0.14063,0.57812 -0.0469,0.3125 -0.0469,0.59375 0,0.5 0.25,0.82813 0.26562,0.3125 0.85937,0.3125 0.375,0 0.70313,-0.0625 0.34375,-0.0625 0.71875,-0.1875 v 1.25 q -0.23438,0.10937 -0.73438,0.21875 -0.5,0.125 -0.9375,0.125 z m 7.0918,-0.20313 1.9375,-9.10937 q 0.14062,-0.60938 0.28125,-1.23438 0.14062,-0.625 0.28125,-1.17187 0.14062,-0.54688 0.25,-0.92188 -0.29688,0.3125 -0.60938,0.54688 -0.3125,0.23437 -0.71875,0.5 l -1.85937,1.17187 -0.76563,-1.21875 4.46875,-2.84375 h 1.42188 l -3.04688,14.28125 z"
       fill-rule="nonzero"
       id="path33" />
    <path
       fill="#000000"
       fill-opacity="0"
       d="m 200.59154,404.44617 h 95.87401"
       fill-rule="evenodd"
       id="path35" />
    <path
       stroke="#1c4587"
       stroke-width="2"
       stroke-linejoin="round"
       stroke-linecap="butt"
       d="m 200.59154,404.4462 h 89.01985"
       fill-rule="evenodd"
       id="path37" />
    <path
       fill="#1c4587"
       stroke="#1c4587"
       stroke-width="2"
       stroke-linecap="butt"
       d="m 289.6114,404.4462 -2.24918,2.24918 6.17954,-2.24918 -6.17954,-2.24918 z"
       fill-rule="evenodd"
       id="path39" />
    <path
       fill="#000000"
       fill-opacity="0"
       d="m 188.9695,393.3438 c 0,-12.49997 8.93253,-24.07449 18.31099,-24.99997 9.37848,-0.92545 19.20287,8.79816 18.311,18.05905 -0.89186,9.2609 -12.49996,18.05902 -24.99995,18.05902"
       fill-rule="evenodd"
       id="path41" />
    <path
       stroke="#1c4587"
       stroke-width="2"
       stroke-linejoin="round"
       stroke-linecap="butt"
       d="m 188.96948,393.34384 c 0,-12.5 8.93254,-24.07452 18.311,-24.99997 9.37847,-0.92548 19.20287,8.79816 18.31101,18.05902 -0.44592,4.6304 -3.57092,9.14517 -8.14694,12.50232 -2.288,1.67862 -4.93875,3.06775 -7.79875,4.03732 -0.715,0.24237 -1.44309,0.45856 -2.18184,0.64643 l -0.0718,0.0175"
       fill-rule="evenodd"
       id="path43" />
    <path
       fill="#1c4587"
       stroke="#1c4587"
       stroke-width="2"
       stroke-linecap="butt"
       d="m 207.39212,403.60648 1.95085,-2.5123 -5.85049,3.00284 6.41194,1.46033 z"
       fill-rule="evenodd"
       id="path45" />
    <path
       fill="#000000"
       fill-opacity="0"
       d="m 308.10205,393.3438 c 0,-12.49997 8.93253,-24.07449 18.31101,-24.99997 9.37844,-0.92545 19.20285,8.79816 18.31097,18.05905 -0.89185,9.2609 -12.49997,18.05902 -24.99994,18.05902"
       fill-rule="evenodd"
       id="path47" />
    <path
       stroke="#1c4587"
       stroke-width="2"
       stroke-linejoin="round"
       stroke-linecap="butt"
       d="m 308.10202,393.34384 c 0,-12.5 8.93256,-24.07452 18.311,-24.99997 9.37848,-0.92548 19.20288,8.79816 18.31101,18.05902 -0.44589,4.6304 -3.57092,9.14517 -8.14694,12.50232 -2.288,1.67862 -4.93875,3.06775 -7.79874,4.03732 -0.71499,0.24237 -1.44308,0.45856 -2.18185,0.64643 l -0.0718,0.0175"
       fill-rule="evenodd"
       id="path49" />
    <path
       fill="#1c4587"
       stroke="#1c4587"
       stroke-width="2"
       stroke-linecap="butt"
       d="m 326.52466,403.60648 1.95087,-2.5123 -5.8505,3.00284 6.41193,1.46033 z"
       fill-rule="evenodd"
       id="path51" />
    <path
       fill="#000000"
       fill-opacity="0"
       d="m 169.31496,423.2363 v 0 c 0,-2.04395 1.65694,-3.70087 3.70087,-3.70087 h 31.90536 c 0.98152,0 1.92285,0.38993 2.6169,1.08396 0.69405,0.69406 1.08395,1.63537 1.08395,2.61691 v 14.80301 c 0,2.04391 -1.65692,3.70084 -3.70085,3.70084 h -31.90536 c -2.04393,0 -3.70087,-1.65693 -3.70087,-3.70084 z"
       fill-rule="evenodd"
       id="path53" />
    <path
       fill="#1c4587"
       d="m 175.75269,437.8378 7.95312,-14.28125 h 1.67188 l -7.95313,14.28125 z m 11.52734,0.20313 q -1.0625,0 -1.76562,-0.51563 -0.70313,-0.51562 -0.70313,-1.76562 0,-0.3125 0.0312,-0.65625 0.0469,-0.35938 0.125,-0.75 l 1.26563,-5.98438 h -1.65625 l 0.15625,-0.75 1.78125,-0.6875 1.17187,-2.26562 h 0.96875 l -0.54687,2.46875 h 2.76562 l -0.26562,1.23437 h -2.73438 l -1.26562,6.01563 q -0.0781,0.26562 -0.14063,0.57812 -0.0469,0.3125 -0.0469,0.59375 0,0.5 0.25,0.82813 0.26562,0.3125 0.85937,0.3125 0.375,0 0.70313,-0.0625 0.34375,-0.0625 0.71875,-0.1875 v 1.25 q -0.23438,0.10937 -0.73438,0.21875 -0.5,0.125 -0.9375,0.125 z m 7.0918,-0.20313 1.9375,-9.10937 q 0.14063,-0.60938 0.28125,-1.23438 0.14063,-0.625 0.28125,-1.17187 0.14063,-0.54688 0.25,-0.92188 -0.29687,0.3125 -0.60937,0.54688 -0.3125,0.23437 -0.71875,0.5 l -1.85938,1.17187 -0.76562,-1.21875 4.46875,-2.84375 h 1.42187 l -3.04687,14.28125 z"
       fill-rule="nonzero"
       id="path55" />
  </g>
</svg>
