<svg version="1.1" viewBox="0.0 0.0 960.0 540.0" fill="none" stroke="none" stroke-linecap="square" stroke-miterlimit="10" xmlns:xlink="http://www.w3.org/1999/xlink" xmlns="http://www.w3.org/2000/svg"><clipPath id="gd3650c1d61_0_1057.0"><path d="m0 0l960.0 0l0 540.0l-960.0 0l0 -540.0z" clip-rule="nonzero"/></clipPath><g clip-path="url(#gd3650c1d61_0_1057.0)"><path fill="#ffffff" d="m0 0l960.0 0l0 540.0l-960.0 0z" fill-rule="evenodd"/><path fill="#000000" fill-opacity="0.0" d="m32.72441 11.6850395l894.55115 0l0 60.12598l-894.55115 0z" fill-rule="evenodd"/><path fill="#ffffff" d="m52.708786 44.87479q-4.546875 -1.3125 -6.609375 -3.203125q-2.0625 -1.90625 -2.0625 -4.703125q0 -3.15625 2.515625 -5.21875q2.53125 -2.0625 6.578125 -2.0625q2.75 0 4.90625 1.0625q2.15625 1.0625 3.328125 2.9375q1.1875 1.875 1.1875 4.09375l-3.53125 0q0 -2.421875 -1.546875 -3.796875q-1.546875 -1.390625 -4.34375 -1.390625q-2.609375 0 -4.078125 1.140625q-1.453125 1.140625 -1.453125 3.1875q0 1.625 1.375 2.765625q1.390625 1.125 4.71875 2.0625q3.34375 0.9375 5.21875 2.0625q1.890625 1.125 2.796875 2.640625q0.90625 1.5 0.90625 3.53125q0 3.25 -2.53125 5.203125q-2.53125 1.953125 -6.78125 1.953125q-2.75 0 -5.140625 -1.046875q-2.375 -1.0625 -3.671875 -2.890625q-1.296875 -1.84375 -1.296875 -4.171875l3.546875 0q0 2.421875 1.78125 3.828125q1.796875 1.40625 4.78125 1.40625q2.796875 0 4.28125 -1.140625q1.484375 -1.140625 1.484375 -3.09375q0 -1.96875 -1.375 -3.03125q-1.375 -1.078125 -4.984375 -2.125zm26.146683 9.9375q-1.984375 2.328125 -5.8125 2.328125q-3.171875 0 -4.84375 -1.84375q-1.65625 -1.84375 -1.671875 -5.453125l0 -12.921875l3.390625 0l0 12.828125q0 4.515625 3.671875 4.515625q3.890625 0 5.171875 -2.90625l0 -14.4375l3.40625 0l0 19.859375l-3.234375 0l-0.078125 -1.96875zm25.286789 -7.734375q0 4.546875 -2.09375 7.3125q-2.09375 2.75 -5.625 2.75q-3.765625 0 -5.8125 -2.65625l-0.171875 2.296875l-3.125 0l0 -28.203125l3.40625 0l0 10.53125q2.046875 -2.5625 5.65625 -2.5625q3.625 0 5.6875 2.734375q2.078125 2.734375 2.078125 7.5l0 0.296875zm-3.40625 -0.390625q0 -3.46875 -1.34375 -5.359375q-1.328125 -1.890625 -3.84375 -1.890625q-3.359375 0 -4.828125 3.125l0 8.578125q1.5625 3.125 4.859375 3.125q2.4375 0 3.796875 -1.890625q1.359375 -1.890625 1.359375 -5.6875zm10.872665 -9.765625l0.09375 2.203125q2.1875 -2.578125 5.890625 -2.578125q4.171875 0 5.671875 3.203125q0.984375 -1.4375 2.578125 -2.3125q1.59375 -0.890625 3.75 -0.890625q6.53125 0 6.640625 6.921875l0 13.3125l-3.390625 0l0 -13.109375q0 -2.125 -0.96875 -3.171875q-0.96875 -1.0625 -3.265625 -1.0625q-1.890625 0 -3.140625 1.125q-1.25 1.125 -1.453125 3.03125l0 13.1875l-3.40625 0l0 -13.015625q0 -4.328125 -4.25 -4.328125q-3.34375 0 -4.5625 2.84375l0 14.5l-3.40625 0l0 -19.859375l3.21875 0zm42.0121 19.859375q-0.296875 -0.59375 -0.46875 -2.09375q-2.375 2.453125 -5.65625 2.453125q-2.9375 0 -4.828125 -1.65625q-1.875 -1.65625 -1.875 -4.203125q0 -3.109375 2.359375 -4.828125q2.359375 -1.71875 6.640625 -1.71875l3.296875 0l0 -1.5625q0 -1.765625 -1.0625 -2.828125q-1.0625 -1.0625 -3.140625 -1.0625q-1.8125 0 -3.046875 0.921875q-1.234375 0.921875 -1.234375 2.21875l-3.40625 0q0 -1.484375 1.046875 -2.859375q1.0625 -1.390625 2.859375 -2.203125q1.8125 -0.8125 3.984375 -0.8125q3.4375 0 5.375 1.71875q1.953125 1.71875 2.03125 4.734375l0 9.140625q0 2.734375 0.6875 4.34375l0 0.296875l-3.5625 0zm-5.625 -2.59375q1.59375 0 3.015625 -0.8125q1.4375 -0.828125 2.078125 -2.15625l0 -4.078125l-2.65625 0q-6.25 0 -6.25 3.65625q0 1.59375 1.0625 2.5q1.078125 0.890625 2.75 0.890625zm18.417694 -22.078125l0 4.8125l3.71875 0l0 2.625l-3.71875 0l0 12.3125q0 1.203125 0.5 1.796875q0.5 0.59375 1.6875 0.59375q0.59375 0 1.625 -0.21875l0 2.75q-1.34375 0.359375 -2.609375 0.359375q-2.28125 0 -3.4375 -1.375q-1.15625 -1.375 -1.15625 -3.90625l0 -12.3125l-3.609375 0l0 -2.625l3.609375 0l0 -4.8125l3.390625 0zm15.639755 22.265625q1.828125 0 3.1875 -1.09375q1.359375 -1.109375 1.5 -2.765625l3.21875 0q-0.09375 1.71875 -1.1875 3.265625q-1.078125 1.53125 -2.890625 2.453125q-1.796875 0.90625 -3.828125 0.90625q-4.046875 0 -6.453125 -2.703125q-2.390625 -2.703125 -2.390625 -7.40625l0 -0.5625q0 -2.90625 1.0625 -5.15625q1.0625 -2.265625 3.046875 -3.515625q2.0 -1.25 4.71875 -1.25q3.34375 0 5.546875 2.0q2.21875 2.0 2.375 5.203125l-3.21875 0q-0.140625 -1.921875 -1.453125 -3.15625q-1.3125 -1.25 -3.25 -1.25q-2.578125 0 -4.015625 1.859375q-1.421875 1.859375 -1.421875 5.390625l0 0.640625q0 3.4375 1.40625 5.296875q1.421875 1.84375 4.046875 1.84375zm15.1154785 -15.046875q2.25 -2.78125 5.875 -2.78125q6.296875 0 6.34375 7.109375l0 13.125l-3.390625 0l0 -13.140625q-0.015625 -2.15625 -0.984375 -3.171875q-0.96875 -1.03125 -3.0 -1.03125q-1.65625 0 -2.90625 0.890625q-1.25 0.875 -1.9375 2.296875l0 14.15625l-3.40625 0l0 -28.203125l3.40625 0l0 10.75zm34.85634 17.8125q-4.03125 0 -6.578125 -2.640625q-2.53125 -2.65625 -2.53125 -7.09375l0 -0.625q0 -2.953125 1.125 -5.28125q1.140625 -2.328125 3.15625 -3.640625q2.03125 -1.3125 4.40625 -1.3125q3.875 0 6.015625 2.5625q2.15625 2.546875 2.15625 7.296875l0 1.421875l-13.453125 0q0.0625 2.9375 1.703125 4.75q1.65625 1.796875 4.1875 1.796875q1.796875 0 3.046875 -0.734375q1.25 -0.734375 2.1875 -1.9375l2.0625 1.609375q-2.484375 3.828125 -7.484375 3.828125zm-0.421875 -17.796875q-2.0625 0 -3.453125 1.5q-1.390625 1.484375 -1.71875 4.1875l9.9375 0l0 -0.25q-0.140625 -2.59375 -1.390625 -4.015625q-1.25 -1.421875 -3.375 -1.421875zm18.76036 4.828125l4.40625 -7.25l3.96875 0l-6.5 9.8125l6.703125 10.046875l-3.9375 0l-4.59375 -7.4375l-4.578125 7.4375l-3.953125 0l6.703125 -10.046875l-6.5 -9.8125l3.921875 0l4.359375 7.25zm16.569153 -12.0625l0 4.8125l3.71875 0l0 2.625l-3.71875 0l0 12.3125q0 1.203125 0.5 1.796875q0.5 0.59375 1.6875 0.59375q0.59375 0 1.625 -0.21875l0 2.75q-1.34375 0.359375 -2.609375 0.359375q-2.28125 0 -3.4375 -1.375q-1.15625 -1.375 -1.15625 -3.90625l0 -12.3125l-3.609375 0l0 -2.625l3.609375 0l0 -4.8125l3.390625 0zm17.280396 7.859375q-0.765625 -0.125 -1.671875 -0.125q-3.34375 0 -4.53125 2.84375l0 14.09375l-3.40625 0l0 -19.859375l3.3125 0l0.046875 2.296875q1.671875 -2.671875 4.75 -2.671875q0.984375 0 1.5 0.265625l0 3.15625zm14.642792 16.8125q-0.296875 -0.59375 -0.46875 -2.09375q-2.375 2.453125 -5.65625 2.453125q-2.9375 0 -4.828125 -1.65625q-1.875 -1.65625 -1.875 -4.203125q0 -3.109375 2.359375 -4.828125q2.359375 -1.71875 6.640625 -1.71875l3.296875 0l0 -1.5625q0 -1.765625 -1.0625 -2.828125q-1.0625 -1.0625 -3.140625 -1.0625q-1.8125 0 -3.046875 0.921875q-1.234375 0.921875 -1.234375 2.21875l-3.40625 0q0 -1.484375 1.046875 -2.859375q1.0625 -1.390625 2.859375 -2.203125q1.8125 -0.8125 3.984375 -0.8125q3.4375 0 5.375 1.71875q1.953125 1.71875 2.03125 4.734375l0 9.140625q0 2.734375 0.6875 4.34375l0 0.296875l-3.5625 0zm-5.625 -2.59375q1.59375 0 3.015625 -0.8125q1.4375 -0.828125 2.078125 -2.15625l0 -4.078125l-2.65625 0q-6.25 0 -6.25 3.65625q0 1.59375 1.0625 2.5q1.078125 0.890625 2.75 0.890625zm21.77707 0.1875q1.828125 0 3.1875 -1.09375q1.359375 -1.109375 1.5 -2.765625l3.21875 0q-0.09375 1.71875 -1.1875 3.265625q-1.078125 1.53125 -2.890625 2.453125q-1.796875 0.90625 -3.828125 0.90625q-4.046875 0 -6.453125 -2.703125q-2.390625 -2.703125 -2.390625 -7.40625l0 -0.5625q0 -2.90625 1.0625 -5.15625q1.0625 -2.265625 3.046875 -3.515625q2.0 -1.25 4.71875 -1.25q3.34375 0 5.546875 2.0q2.21875 2.0 2.375 5.203125l-3.21875 0q-0.140625 -1.921875 -1.453125 -3.15625q-1.3125 -1.25 -3.25 -1.25q-2.578125 0 -4.015625 1.859375q-1.421875 1.859375 -1.421875 5.390625l0 0.640625q0 3.4375 1.40625 5.296875q1.421875 1.84375 4.046875 1.84375zm16.318604 -22.265625l0 4.8125l3.71875 0l0 2.625l-3.71875 0l0 12.3125q0 1.203125 0.5 1.796875q0.5 0.59375 1.6875 0.59375q0.59375 0 1.625 -0.21875l0 2.75q-1.34375 0.359375 -2.609375 0.359375q-2.28125 0 -3.4375 -1.375q-1.15625 -1.375 -1.15625 -3.90625l0 -12.3125l-3.609375 0l0 -2.625l3.609375 0l0 -4.8125l3.390625 0zm11.374115 24.671875l-3.40625 0l0 -19.859375l3.40625 0l0 19.859375zm-3.671875 -25.125q0 -0.828125 0.5 -1.390625q0.5 -0.578125 1.484375 -0.578125q1.0 0 1.515625 0.578125q0.515625 0.5625 0.515625 1.390625q0 0.828125 -0.515625 1.375q-0.515625 0.546875 -1.515625 0.546875q-0.984375 0 -1.484375 -0.546875q-0.5 -0.546875 -0.5 -1.375zm8.201233 15.015625q0 -2.921875 1.140625 -5.25q1.15625 -2.34375 3.203125 -3.609375q2.046875 -1.265625 4.671875 -1.265625q4.046875 0 6.546875 2.8125q2.515625 2.8125 2.515625 7.46875l0 0.25q0 2.890625 -1.109375 5.203125q-1.109375 2.296875 -3.171875 3.578125q-2.0625 1.28125 -4.75 1.28125q-4.03125 0 -6.546875 -2.796875q-2.5 -2.8125 -2.5 -7.4375l0 -0.234375zm3.40625 0.40625q0 3.296875 1.53125 5.296875q1.546875 2.0 4.109375 2.0q2.59375 0 4.109375 -2.03125q1.53125 -2.03125 1.53125 -5.671875q0 -3.265625 -1.5625 -5.296875q-1.546875 -2.03125 -4.109375 -2.03125q-2.515625 0 -4.0625 2.0q-1.546875 2.0 -1.546875 5.734375zm22.14331 -10.15625l0.109375 2.5q2.28125 -2.875 5.953125 -2.875q6.296875 0 6.34375 7.109375l0 13.125l-3.390625 0l0 -13.140625q-0.015625 -2.15625 -0.984375 -3.171875q-0.96875 -1.03125 -3.0 -1.03125q-1.65625 0 -2.90625 0.890625q-1.25 0.875 -1.9375 2.296875l0 14.15625l-3.40625 0l0 -19.859375l3.21875 0z" fill-rule="nonzero"/><path fill="#ffffff" d="m235.68079 318.773l0 0c0 -2.0439148 1.6569214 -3.7008362 3.7008514 -3.7008362l15.842377 0l0 0c0.9815216 0 1.9228668 0.38989258 2.6168976 1.0839539c0.6940613 0.69403076 1.0839539 1.635376 1.0839539 2.6168823l0 14.803009c0 2.0439453 -1.6569214 3.7008667 -3.7008514 3.7008667l-15.842377 0c-2.04393 0 -3.7008514 -1.6569214 -3.7008514 -3.7008667z" fill-rule="evenodd"/><path stroke="#4285f4" stroke-width="2.0" stroke-linejoin="round" stroke-linecap="butt" d="m235.68079 318.773l0 0c0 -2.0439148 1.6569214 -3.7008362 3.7008514 -3.7008362l15.842377 0l0 0c0.9815216 0 1.9228668 0.38989258 2.6168976 1.0839539c0.6940613 0.69403076 1.0839539 1.635376 1.0839539 2.6168823l0 14.803009c0 2.0439453 -1.6569214 3.7008667 -3.7008514 3.7008667l-15.842377 0c-2.04393 0 -3.7008514 -1.6569214 -3.7008514 -3.7008667z" fill-rule="evenodd"/><path fill="#4285f4" d="m251.62692 328.032l0 -3.140625q0 -1.265625 -0.3125 -2.25q-0.296875 -0.984375 -0.84375 -1.65625q-0.5625 -0.65625 -1.359375 -1.0q-0.796875 -0.34375 -1.796875 -0.34375q-1.015625 0 -1.8125 0.34375q-0.796875 0.34375 -1.34375 1.0q-0.5625 0.671875 -0.859375 1.65625q-0.296875 0.984375 -0.296875 2.25l0 3.140625q0 1.28125 0.296875 2.265625q0.296875 0.96875 0.859375 1.625q0.5625 0.6875 1.359375 1.03125q0.8125 0.328125 1.8125 0.328125q1.0 0 1.796875 -0.328125q0.796875 -0.34375 1.34375 -1.03125q0.5625 -0.65625 0.859375 -1.625q0.296875 -0.984375 0.296875 -2.265625zm-6.4375 -0.765625q0 -0.265625 0 -0.4375q0 -0.1875 0 -0.546875l0 -1.78125q0 -0.8125 0.140625 -1.421875q0.15625 -0.609375 0.453125 -0.984375q0.265625 -0.34375 0.640625 -0.515625q0.375 -0.171875 0.890625 -0.171875q0.453125 0 0.828125 0.15625q0.375 0.140625 0.625 0.421875q0.28125 0.328125 0.4375 0.859375q0.171875 0.515625 0.203125 1.21875l-4.21875 3.203125zm4.234375 1.140625q0 0.828125 -0.15625 1.453125q-0.140625 0.625 -0.4375 1.0q-0.265625 0.328125 -0.640625 0.5q-0.375 0.171875 -0.859375 0.171875q-0.5 0 -0.890625 -0.171875q-0.375 -0.171875 -0.625 -0.53125q-0.25 -0.3125 -0.40625 -0.796875q-0.15625 -0.484375 -0.203125 -1.109375l4.21875 -3.171875q0 0.25 0 0.5q0 0.25 0 0.46875l0 1.6875z" fill-rule="nonzero"/><path fill="#ffffff" d="m291.67947 289.962l0 0c0 -2.0439453 1.6569214 -3.7008667 3.7008667 -3.7008667l15.842346 0l0 0c0.98153687 0 1.9228821 0.3899231 2.6169128 1.0839539c0.6940613 0.6940613 1.0839539 1.635376 1.0839539 2.6169128l0 14.803009c0 2.0439148 -1.6569214 3.7008362 -3.7008667 3.7008362l-15.842346 0c-2.0439453 0 -3.7008667 -1.6569214 -3.7008667 -3.7008362z" fill-rule="evenodd"/><path stroke="#4285f4" stroke-width="2.0" stroke-linejoin="round" stroke-linecap="butt" d="m291.67947 289.962l0 0c0 -2.0439453 1.6569214 -3.7008667 3.7008667 -3.7008667l15.842346 0l0 0c0.98153687 0 1.9228821 0.3899231 2.6169128 1.0839539c0.6940613 0.6940613 1.0839539 1.635376 1.0839539 2.6169128l0 14.803009c0 2.0439148 -1.6569214 3.7008362 -3.7008667 3.7008362l-15.842346 0c-2.0439453 0 -3.7008667 -1.6569214 -3.7008667 -3.7008362z" fill-rule="evenodd"/><path fill="#4285f4" d="m305.01624 304.2835l0 -13.265625l-0.140625 0l-5.453125 2.03125l0 1.921875l3.390625 -1.25l0 10.5625l2.203125 0z" fill-rule="nonzero"/><path fill="#ffffff" d="m323.96817 238.04993l0 0c0 -2.04393 1.6569519 -3.7008667 3.7008667 -3.7008667l15.842377 0l0 0c0.98153687 0 1.9228516 0.3899231 2.6169128 1.0839691c0.69403076 0.694046 1.0839539 1.6353607 1.0839539 2.6168976l0 14.803009c0 2.0439148 -1.6569214 3.7008667 -3.7008667 3.7008667l-15.842377 0c-2.0439148 0 -3.7008667 -1.6569519 -3.7008667 -3.7008667z" fill-rule="evenodd"/><path stroke="#4285f4" stroke-width="2.0" stroke-linejoin="round" stroke-linecap="butt" d="m323.96817 238.04993l0 0c0 -2.04393 1.6569519 -3.7008667 3.7008667 -3.7008667l15.842377 0l0 0c0.98153687 0 1.9228516 0.3899231 2.6169128 1.0839691c0.69403076 0.694046 1.0839539 1.6353607 1.0839539 2.6168976l0 14.803009c0 2.0439148 -1.6569214 3.7008667 -3.7008667 3.7008667l-15.842377 0c-2.0439148 0 -3.7008667 -1.6569519 -3.7008667 -3.7008667z" fill-rule="evenodd"/><path fill="#4285f4" d="m339.8518 252.37143l0 -1.765625l-6.171875 0l2.9375 -3.140625q0.59375 -0.625 1.078125 -1.203125q0.5 -0.59375 0.875 -1.15625q0.34375 -0.578125 0.546875 -1.15625q0.21875 -0.59375 0.21875 -1.21875q0 -0.84375 -0.28125 -1.53125q-0.265625 -0.703125 -0.796875 -1.203125q-0.515625 -0.5 -1.296875 -0.78125q-0.765625 -0.296875 -1.734375 -0.296875q-1.046875 0 -1.890625 0.34375q-0.84375 0.34375 -1.421875 0.90625q-0.59375 0.578125 -0.921875 1.359375q-0.3125 0.765625 -0.3125 1.625l2.1875 0q0 -0.578125 0.140625 -1.015625q0.15625 -0.453125 0.453125 -0.78125q0.28125 -0.296875 0.703125 -0.453125q0.421875 -0.171875 1.015625 -0.171875q0.453125 0 0.8125 0.15625q0.375 0.15625 0.640625 0.421875q0.265625 0.28125 0.390625 0.671875q0.140625 0.375 0.140625 0.828125q0 0.359375 -0.09375 0.703125q-0.09375 0.328125 -0.3125 0.71875q-0.21875 0.390625 -0.59375 0.859375q-0.359375 0.46875 -0.890625 1.0625l-4.328125 4.703125l0 1.515625l8.90625 0z" fill-rule="nonzero"/><path fill="#ffffff" d="m387.59155 238.34126l0 0c0 -2.04393 1.6569214 -3.7008514 3.7008362 -3.7008514l15.842377 0l0 0c0.98153687 0 1.9228821 0.38990784 2.6169128 1.0839539c0.6940613 0.694046 1.0839539 1.635376 1.0839539 2.6168976l0 14.803009c0 2.04393 -1.6569214 3.7008514 -3.7008667 3.7008514l-15.842377 0c-2.0439148 0 -3.7008362 -1.6569214 -3.7008362 -3.7008514z" fill-rule="evenodd"/><path stroke="#4285f4" stroke-width="2.0" stroke-linejoin="round" stroke-linecap="butt" d="m387.59155 238.34126l0 0c0 -2.04393 1.6569214 -3.7008514 3.7008362 -3.7008514l15.842377 0l0 0c0.98153687 0 1.9228821 0.38990784 2.6169128 1.0839539c0.6940613 0.694046 1.0839539 1.635376 1.0839539 2.6168976l0 14.803009c0 2.04393 -1.6569214 3.7008514 -3.7008667 3.7008514l-15.842377 0c-2.0439148 0 -3.7008362 -1.6569214 -3.7008362 -3.7008514z" fill-rule="evenodd"/><path fill="#4285f4" d="m397.33456 245.05339l0 1.703125l1.296875 0q0.5625 0 1.015625 0.140625q0.46875 0.125 0.796875 0.390625q0.328125 0.28125 0.5 0.6875q0.171875 0.40625 0.171875 0.984375q0 0.5 -0.15625 0.90625q-0.140625 0.390625 -0.421875 0.65625q-0.296875 0.28125 -0.71875 0.421875q-0.421875 0.140625 -0.953125 0.140625q-0.484375 0 -0.890625 -0.140625q-0.40625 -0.15625 -0.703125 -0.40625q-0.296875 -0.265625 -0.453125 -0.625q-0.15625 -0.375 -0.15625 -0.8125l-2.1875 0q0 0.9375 0.359375 1.640625q0.359375 0.6875 0.96875 1.15625q0.59375 0.46875 1.390625 0.71875q0.796875 0.234375 1.65625 0.234375q0.9375 0 1.75 -0.265625q0.828125 -0.265625 1.421875 -0.765625q0.59375 -0.484375 0.9375 -1.203125q0.34375 -0.734375 0.34375 -1.65625q0 -0.5 -0.125 -0.96875q-0.109375 -0.46875 -0.375 -0.890625q-0.265625 -0.390625 -0.6875 -0.71875q-0.40625 -0.328125 -1.0 -0.53125q0.5 -0.21875 0.875 -0.546875q0.375 -0.328125 0.609375 -0.703125q0.25 -0.375 0.375 -0.78125q0.125 -0.421875 0.125 -0.828125q0 -0.9375 -0.3125 -1.625q-0.3125 -0.703125 -0.875 -1.1875q-0.546875 -0.484375 -1.34375 -0.71875q-0.78125 -0.25 -1.71875 -0.25q-0.921875 0 -1.703125 0.28125q-0.765625 0.265625 -1.328125 0.75q-0.5625 0.5 -0.890625 1.171875q-0.3125 0.65625 -0.3125 1.453125l2.171875 0q0 -0.4375 0.15625 -0.78125q0.171875 -0.34375 0.453125 -0.59375q0.265625 -0.25 0.640625 -0.375q0.390625 -0.125 0.828125 -0.125q0.5 0 0.890625 0.140625q0.390625 0.125 0.640625 0.375q0.265625 0.265625 0.390625 0.640625q0.140625 0.375 0.140625 0.84375q0 0.4375 -0.15625 0.8125q-0.140625 0.375 -0.390625 0.640625q-0.28125 0.28125 -0.71875 0.453125q-0.4375 0.15625 -1.03125 0.15625l-1.296875 0z" fill-rule="nonzero"/><path fill="#ffffff" d="m421.1703 289.962l0 0c0 -2.0439453 1.6569214 -3.7008667 3.7008667 -3.7008667l15.842346 0l0 0c0.98153687 0 1.9228821 0.3899231 2.6169128 1.0839539c0.6940613 0.6940613 1.0839539 1.635376 1.0839539 2.6169128l0 14.803009c0 2.0439148 -1.6569214 3.7008362 -3.7008667 3.7008362l-15.842346 0c-2.0439453 0 -3.7008667 -1.6569214 -3.7008667 -3.7008362z" fill-rule="evenodd"/><path stroke="#4285f4" stroke-width="2.0" stroke-linejoin="round" stroke-linecap="butt" d="m421.1703 289.962l0 0c0 -2.0439453 1.6569214 -3.7008667 3.7008667 -3.7008667l15.842346 0l0 0c0.98153687 0 1.9228821 0.3899231 2.6169128 1.0839539c0.6940613 0.6940613 1.0839539 1.635376 1.0839539 2.6169128l0 14.803009c0 2.0439148 -1.6569214 3.7008362 -3.7008667 3.7008362l-15.842346 0c-2.0439453 0 -3.7008667 -1.6569214 -3.7008667 -3.7008362z" fill-rule="evenodd"/><path fill="#4285f4" d="m435.77267 299.54913l0 -8.53125l-2.25 0l-5.734375 8.96875l0.0625 1.34375l5.734375 0l0 2.953125l2.1875 0l0 -2.953125l1.65625 0l0 -1.78125l-1.65625 0zm-5.75 0l3.3125 -5.140625l0.25 -0.46875l0 5.609375l-3.5625 0z" fill-rule="nonzero"/><path fill="#ffffff" d="m465.31235 334.77435l0 0c0 -2.0439453 1.6569214 -3.7008667 3.7008362 -3.7008667l15.842377 0l0 0c0.98153687 0 1.9228516 0.3899231 2.6169128 1.0839539c0.69403076 0.6940613 1.0839539 1.635376 1.0839539 2.6169128l0 14.803009c0 2.0439148 -1.6569214 3.7008667 -3.7008667 3.7008667l-15.842377 0c-2.0439148 0 -3.7008362 -1.6569519 -3.7008362 -3.7008667z" fill-rule="evenodd"/><path stroke="#4285f4" stroke-width="2.0" stroke-linejoin="round" stroke-linecap="butt" d="m465.31235 334.77435l0 0c0 -2.0439453 1.6569214 -3.7008667 3.7008362 -3.7008667l15.842377 0l0 0c0.98153687 0 1.9228516 0.3899231 2.6169128 1.0839539c0.69403076 0.6940613 1.0839539 1.635376 1.0839539 2.6169128l0 14.803009c0 2.0439148 -1.6569214 3.7008667 -3.7008667 3.7008667l-15.842377 0c-2.0439148 0 -3.7008362 -1.6569519 -3.7008362 -3.7008667z" fill-rule="evenodd"/><path fill="#4285f4" d="m474.50848 347.29898l-0.171875 0l0 1.859375l0.1875 0q1.71875 0 2.921875 -0.5q1.21875 -0.5 1.96875 -1.375q0.921875 -1.0625 1.28125 -2.484375q0.375 -1.421875 0.375 -2.984375l0 -0.765625q0 -1.140625 -0.3125 -2.171875q-0.296875 -1.046875 -0.875 -1.765625q-0.5625 -0.671875 -1.359375 -1.0625q-0.796875 -0.40625 -1.828125 -0.40625q-1.015625 0 -1.8125 0.375q-0.796875 0.375 -1.34375 1.0q-0.546875 0.640625 -0.84375 1.484375q-0.28125 0.84375 -0.28125 1.796875q0 0.875 0.234375 1.6875q0.25 0.796875 0.734375 1.421875q0.46875 0.609375 1.171875 0.96875q0.71875 0.359375 1.6875 0.359375q0.484375 0 0.875 -0.078125q0.390625 -0.09375 0.71875 -0.25q0.3125 -0.15625 0.5625 -0.34375q0.265625 -0.203125 0.46875 -0.421875l0 0.046875q-0.078125 0.765625 -0.328125 1.4375q-0.25 0.671875 -0.796875 1.1875q-0.515625 0.46875 -1.3125 0.734375q-0.78125 0.25 -1.921875 0.25zm2.203125 -4.28125q-0.546875 0 -0.953125 -0.234375q-0.390625 -0.234375 -0.65625 -0.609375q-0.265625 -0.390625 -0.390625 -0.890625q-0.125 -0.5 -0.125 -1.046875q0 -0.5625 0.140625 -1.078125q0.140625 -0.515625 0.40625 -0.90625q0.265625 -0.375 0.65625 -0.59375q0.40625 -0.234375 0.90625 -0.234375q0.46875 0 0.859375 0.21875q0.40625 0.21875 0.703125 0.625q0.296875 0.40625 0.46875 1.015625q0.171875 0.609375 0.171875 1.40625l0 0.75q-0.125 0.34375 -0.34375 0.640625q-0.21875 0.28125 -0.5 0.484375q-0.28125 0.21875 -0.625 0.34375q-0.34375 0.109375 -0.71875 0.109375z" fill-rule="nonzero"/><path fill="#ffffff" d="m566.65094 334.77304l0 0c0 -2.0439453 1.6569214 -3.7008667 3.7008667 -3.7008667l30.267517 0c0.9815674 0 1.9229126 0.3899231 2.6169434 1.0839539c0.69403076 0.6940613 1.0839233 1.635376 1.0839233 2.6169128l0 14.803009c0 2.0439148 -1.6569214 3.7008667 -3.7008667 3.7008667l-30.267517 0c-2.0439453 0 -3.7008667 -1.6569519 -3.7008667 -3.7008667z" fill-rule="evenodd"/><path stroke="#4285f4" stroke-width="2.0" stroke-linejoin="round" stroke-linecap="butt" d="m566.65094 334.77304l0 0c0 -2.0439453 1.6569214 -3.7008667 3.7008667 -3.7008667l30.267517 0c0.9815674 0 1.9229126 0.3899231 2.6169434 1.0839539c0.69403076 0.6940613 1.0839233 1.635376 1.0839233 2.6169128l0 14.803009c0 2.0439148 -1.6569214 3.7008667 -3.7008667 3.7008667l-30.267517 0c-2.0439453 0 -3.7008667 -1.6569519 -3.7008667 -3.7008667z" fill-rule="evenodd"/><path fill="#4285f4" d="m581.6025 349.09454l0 -13.265625l-0.140625 0l-5.453125 2.03125l0 1.921875l3.390625 -1.25l0 10.5625l2.203125 0zm13.804932 -5.0625l0 -3.140625q0 -1.265625 -0.3125 -2.25q-0.296875 -0.984375 -0.84375 -1.65625q-0.5625 -0.65625 -1.359375 -1.0q-0.796875 -0.34375 -1.796875 -0.34375q-1.015625 0 -1.8125 0.34375q-0.796875 0.34375 -1.34375 1.0q-0.5625 0.671875 -0.859375 1.65625q-0.296875 0.984375 -0.296875 2.25l0 3.140625q0 1.28125 0.296875 2.265625q0.296875 0.96875 0.859375 1.625q0.5625 0.6875 1.359375 1.03125q0.8125 0.328125 1.8125 0.328125q1.0 0 1.796875 -0.328125q0.796875 -0.34375 1.34375 -1.03125q0.5625 -0.65625 0.859375 -1.625q0.296875 -0.984375 0.296875 -2.265625zm-6.4375 -0.765625q0 -0.265625 0 -0.4375q0 -0.1875 0 -0.546875l0 -1.78125q0 -0.8125 0.140625 -1.421875q0.15625 -0.609375 0.453125 -0.984375q0.265625 -0.34375 0.640625 -0.515625q0.375 -0.171875 0.890625 -0.171875q0.453125 0 0.828125 0.15625q0.375 0.140625 0.625 0.421875q0.28125 0.328125 0.4375 0.859375q0.171875 0.515625 0.203125 1.21875l-4.21875 3.203125zm4.234375 1.140625q0 0.828125 -0.15625 1.453125q-0.140625 0.625 -0.4375 1.0q-0.265625 0.328125 -0.640625 0.5q-0.375 0.171875 -0.859375 0.171875q-0.5 0 -0.890625 -0.171875q-0.375 -0.171875 -0.625 -0.53125q-0.25 -0.3125 -0.40625 -0.796875q-0.15625 -0.484375 -0.203125 -1.109375l4.21875 -3.171875q0 0.25 0 0.5q0 0.25 0 0.46875l0 1.6875z" fill-rule="nonzero"/><path fill="#ffffff" d="m533.4485 238.04993l0 0c0 -2.04393 1.6569214 -3.7008667 3.7008667 -3.7008667l15.842407 0l0 0c0.98150635 0 1.9228516 0.3899231 2.6168823 1.0839691c0.69403076 0.694046 1.0839233 1.6353607 1.0839233 2.6168976l0 14.803009c0 2.0439148 -1.6569214 3.7008667 -3.7008057 3.7008667l-15.842407 0c-2.0439453 0 -3.7008667 -1.6569519 -3.7008667 -3.7008667z" fill-rule="evenodd"/><path stroke="#4285f4" stroke-width="2.0" stroke-linejoin="round" stroke-linecap="butt" d="m533.4485 238.04993l0 0c0 -2.04393 1.6569214 -3.7008667 3.7008667 -3.7008667l15.842407 0l0 0c0.98150635 0 1.9228516 0.3899231 2.6168823 1.0839691c0.69403076 0.694046 1.0839233 1.6353607 1.0839233 2.6168976l0 14.803009c0 2.0439148 -1.6569214 3.7008667 -3.7008057 3.7008667l-15.842407 0c-2.0439453 0 -3.7008667 -1.6569519 -3.7008667 -3.7008667z" fill-rule="evenodd"/><path fill="#4285f4" d="m541.20715 245.7933l1.75 0.421875q0.171875 -0.15625 0.359375 -0.296875q0.1875 -0.140625 0.40625 -0.25q0.21875 -0.109375 0.5 -0.171875q0.296875 -0.0625 0.6875 -0.0625q0.59375 0 1.03125 0.203125q0.453125 0.1875 0.75 0.546875q0.3125 0.359375 0.453125 0.84375q0.15625 0.46875 0.15625 1.046875q0 0.59375 -0.140625 1.09375q-0.125 0.5 -0.375 0.859375q-0.265625 0.359375 -0.671875 0.5625q-0.40625 0.203125 -0.953125 0.203125q-0.921875 0 -1.515625 -0.515625q-0.59375 -0.515625 -0.71875 -1.5l-2.125 0q0.0625 0.921875 0.4375 1.640625q0.375 0.703125 0.96875 1.171875q0.59375 0.484375 1.359375 0.734375q0.765625 0.234375 1.59375 0.234375q1.109375 0 1.921875 -0.34375q0.8125 -0.359375 1.34375 -0.953125q0.53125 -0.609375 0.78125 -1.40625q0.265625 -0.8125 0.265625 -1.71875q0 -1.03125 -0.28125 -1.859375q-0.265625 -0.828125 -0.765625 -1.40625q-0.53125 -0.578125 -1.28125 -0.875q-0.734375 -0.3125 -1.671875 -0.3125q-0.6875 0 -1.21875 0.171875q-0.53125 0.171875 -0.859375 0.359375l0.34375 -3.171875l5.3125 0l0 -1.9375l-7.125 0l-0.71875 6.6875z" fill-rule="nonzero"/><path fill="#ffffff" d="m597.07184 238.34126l0 0c0 -2.04393 1.6569214 -3.7008514 3.7008667 -3.7008514l15.842407 0l0 0c0.98150635 0 1.9228516 0.38990784 2.6168823 1.0839539c0.69403076 0.694046 1.0839844 1.635376 1.0839844 2.6168976l0 14.803009c0 2.04393 -1.6569824 3.7008514 -3.7008667 3.7008514l-15.842407 0c-2.0439453 0 -3.7008667 -1.6569214 -3.7008667 -3.7008514z" fill-rule="evenodd"/><path stroke="#4285f4" stroke-width="2.0" stroke-linejoin="round" stroke-linecap="butt" d="m597.07184 238.34126l0 0c0 -2.04393 1.6569214 -3.7008514 3.7008667 -3.7008514l15.842407 0l0 0c0.98150635 0 1.9228516 0.38990784 2.6168823 1.0839539c0.69403076 0.694046 1.0839844 1.635376 1.0839844 2.6168976l0 14.803009c0 2.04393 -1.6569824 3.7008514 -3.7008667 3.7008514l-15.842407 0c-2.0439453 0 -3.7008667 -1.6569214 -3.7008667 -3.7008514z" fill-rule="evenodd"/><path fill="#4285f4" d="m611.018 239.33464l-0.265625 0q-1.546875 0 -2.75 0.484375q-1.203125 0.484375 -2.015625 1.390625q-0.96875 1.046875 -1.390625 2.5q-0.40625 1.453125 -0.40625 3.046875l0 0.90625q0 1.0625 0.3125 2.03125q0.3125 0.953125 0.90625 1.671875q0.5625 0.671875 1.375 1.078125q0.828125 0.40625 1.875 0.40625q1.03125 0 1.828125 -0.34375q0.796875 -0.359375 1.34375 -0.984375q0.546875 -0.609375 0.828125 -1.421875q0.296875 -0.828125 0.296875 -1.78125q0 -0.859375 -0.234375 -1.65625q-0.21875 -0.8125 -0.6875 -1.4375q-0.46875 -0.609375 -1.1875 -0.96875q-0.703125 -0.375 -1.671875 -0.375q-0.453125 0 -0.875 0.109375q-0.40625 0.09375 -0.734375 0.265625q-0.359375 0.1875 -0.65625 0.421875q-0.28125 0.234375 -0.5 0.484375q0.0625 -0.859375 0.359375 -1.59375q0.3125 -0.734375 0.875 -1.265625q0.546875 -0.53125 1.34375 -0.828125q0.796875 -0.296875 1.875 -0.296875l0.15625 0l0 -1.84375zm-2.390625 6.3125q0.53125 0 0.9375 0.21875q0.40625 0.203125 0.6875 0.578125q0.265625 0.375 0.40625 0.875q0.140625 0.5 0.140625 1.046875q0 0.59375 -0.140625 1.09375q-0.140625 0.484375 -0.4375 0.859375q-0.28125 0.34375 -0.6875 0.5625q-0.390625 0.203125 -0.90625 0.203125q-0.453125 0 -0.875 -0.203125q-0.40625 -0.21875 -0.71875 -0.625q-0.296875 -0.40625 -0.484375 -1.0q-0.171875 -0.609375 -0.171875 -1.390625l0 -0.671875q0.140625 -0.34375 0.359375 -0.609375q0.21875 -0.28125 0.5 -0.484375q0.296875 -0.21875 0.640625 -0.328125q0.359375 -0.125 0.75 -0.125z" fill-rule="nonzero"/><path fill="#ffffff" d="m630.6506 289.962l0 0c0 -2.0439453 1.6569824 -3.7008667 3.7008667 -3.7008667l15.842407 0l0 0c0.98150635 0 1.9228516 0.3899231 2.6168823 1.0839539c0.69403076 0.6940613 1.0839844 1.635376 1.0839844 2.6169128l0 14.803009c0 2.0439148 -1.6569824 3.7008362 -3.7008667 3.7008362l-15.842407 0c-2.0438843 0 -3.7008667 -1.6569214 -3.7008667 -3.7008362z" fill-rule="evenodd"/><path stroke="#4285f4" stroke-width="2.0" stroke-linejoin="round" stroke-linecap="butt" d="m630.6506 289.962l0 0c0 -2.0439453 1.6569824 -3.7008667 3.7008667 -3.7008667l15.842407 0l0 0c0.98150635 0 1.9228516 0.3899231 2.6168823 1.0839539c0.69403076 0.6940613 1.0839844 1.635376 1.0839844 2.6169128l0 14.803009c0 2.0439148 -1.6569824 3.7008362 -3.7008667 3.7008362l-15.842407 0c-2.0438843 0 -3.7008667 -1.6569214 -3.7008667 -3.7008362z" fill-rule="evenodd"/><path fill="#4285f4" d="m646.6436 292.23663l0 -1.21875l-9.171875 0l0 1.828125l6.875 0l-5.296875 11.4375l2.296875 0l5.296875 -12.046875z" fill-rule="nonzero"/><path fill="#000000" fill-opacity="0.0" d="m355.7792 190.42393l0 0c0 -2.0439148 1.6569214 -3.7008514 3.7008667 -3.7008514l15.842377 0l0 0c0.98150635 0 1.9228516 0.38990784 2.6168823 1.0839539c0.6940613 0.694046 1.0839539 1.635376 1.0839539 2.6168976l0 14.803009c0 2.04393 -1.6569214 3.7008667 -3.7008362 3.7008667l-15.842377 0c-2.0439453 0 -3.7008667 -1.6569366 -3.7008667 -3.7008667z" fill-rule="evenodd"/><path fill="#1c4587" d="m365.62195 205.22856q-0.875 0 -1.53125 -0.421875q-0.65625 -0.421875 -1.015625 -1.234375q-0.359375 -0.828125 -0.359375 -2.015625q0 -1.1875 0.25 -2.28125q0.25 -1.09375 0.703125 -2.03125q0.46875 -0.9375 1.109375 -1.640625q0.65625 -0.703125 1.453125 -1.09375q0.8125 -0.390625 1.75 -0.390625q0.734375 0 1.265625 0.28125q0.53125 0.265625 0.875 0.71875q0.359375 0.4375 0.578125 0.9375l0.09375 0l0.625 -1.734375l1.234375 0l-2.265625 10.703125l-1.296875 0l0.296875 -2.078125l-0.078125 0q-0.4375 0.59375 -1.015625 1.109375q-0.5625 0.515625 -1.234375 0.84375q-0.671875 0.328125 -1.4375 0.328125zm0.515625 -1.359375q0.75 0 1.484375 -0.546875q0.75 -0.546875 1.328125 -1.484375q0.59375 -0.953125 0.90625 -2.140625q0.15625 -0.578125 0.203125 -1.046875q0.0625 -0.484375 0.0625 -0.90625q0 -1.015625 -0.53125 -1.625q-0.53125 -0.625 -1.453125 -0.625q-0.640625 0 -1.21875 0.328125q-0.578125 0.328125 -1.046875 0.90625q-0.46875 0.578125 -0.796875 1.34375q-0.328125 0.765625 -0.515625 1.671875q-0.171875 0.890625 -0.171875 1.84375q0 1.125 0.453125 1.703125q0.46875 0.578125 1.296875 0.578125z" fill-rule="nonzero"/><path fill="#000000" fill-opacity="0.0" d="m562.05743 190.42393l0 0c0 -2.0439148 1.6569214 -3.7008514 3.7008667 -3.7008514l15.842346 0l0 0c0.98150635 0 1.9228516 0.38990784 2.6168823 1.0839539c0.6940918 0.694046 1.0839844 1.635376 1.0839844 2.6168976l0 14.803009c0 2.04393 -1.6569214 3.7008667 -3.7008667 3.7008667l-15.842346 0c-2.0439453 0 -3.7008667 -1.6569366 -3.7008667 -3.7008667z" fill-rule="evenodd"/><path fill="#1c4587" d="m573.2156 205.22856q-0.75 0 -1.3125 -0.265625q-0.546875 -0.28125 -0.90625 -0.71875q-0.359375 -0.4375 -0.5625 -0.953125l-0.09375 0l-0.640625 1.734375l-1.234375 0l3.234375 -15.203125l1.609375 0l-0.78125 3.671875q-0.125 0.65625 -0.28125 1.296875q-0.15625 0.640625 -0.28125 1.09375q-0.125 0.4375 -0.171875 0.515625l0.078125 0q0.46875 -0.59375 1.015625 -1.109375q0.546875 -0.515625 1.1875 -0.828125q0.65625 -0.3125 1.421875 -0.3125q0.90625 0 1.5625 0.421875q0.671875 0.40625 1.03125 1.21875q0.375 0.8125 0.375 2.0q0 1.15625 -0.234375 2.25q-0.234375 1.09375 -0.671875 2.03125q-0.4375 0.9375 -1.078125 1.640625q-0.625 0.703125 -1.453125 1.109375q-0.828125 0.40625 -1.8125 0.40625zm-0.109375 -1.359375q0.671875 0 1.234375 -0.34375q0.578125 -0.34375 1.03125 -0.921875q0.46875 -0.59375 0.78125 -1.375q0.3125 -0.78125 0.46875 -1.65625q0.171875 -0.890625 0.171875 -1.796875q0 -1.125 -0.453125 -1.703125q-0.453125 -0.578125 -1.34375 -0.578125q-0.46875 0 -0.953125 0.234375q-0.484375 0.21875 -0.9375 0.640625q-0.453125 0.421875 -0.84375 1.0q-0.375 0.5625 -0.671875 1.25q-0.28125 0.671875 -0.453125 1.4375q-0.15625 0.765625 -0.15625 1.546875q0 1.03125 0.515625 1.65625q0.53125 0.609375 1.609375 0.609375z" fill-rule="nonzero"/><path fill="#c9daf8" d="m686.65106 318.77304l0 0c0 -2.0439453 1.6569824 -3.7008667 3.7008667 -3.7008667l30.267578 0c0.9815674 0 1.9228516 0.3899231 2.6169434 1.0839539c0.69403076 0.6940613 1.0839233 1.635376 1.0839233 2.6169128l0 14.803009c0 2.0439148 -1.6569214 3.7008667 -3.7008667 3.7008667l-30.267578 0c-2.0438843 0 -3.7008667 -1.6569519 -3.7008667 -3.7008667z" fill-rule="evenodd"/><path stroke="#4285f4" stroke-width="2.0" stroke-linejoin="round" stroke-linecap="butt" d="m686.65106 318.77304l0 0c0 -2.0439453 1.6569824 -3.7008667 3.7008667 -3.7008667l30.267578 0c0.9815674 0 1.9228516 0.3899231 2.6169434 1.0839539c0.69403076 0.6940613 1.0839233 1.635376 1.0839233 2.6169128l0 14.803009c0 2.0439148 -1.6569214 3.7008667 -3.7008667 3.7008667l-30.267578 0c-2.0438843 0 -3.7008667 -1.6569519 -3.7008667 -3.7008667z" fill-rule="evenodd"/><path fill="#4285f4" d="m701.60266 333.09454l0 -13.265625l-0.140625 0l-5.453125 2.03125l0 1.921875l3.390625 -1.25l0 10.5625l2.203125 0zm11.195557 0l0 -13.265625l-0.140625 0l-5.453125 2.03125l0 1.921875l3.390625 -1.25l0 10.5625l2.203125 0z" fill-rule="nonzero"/><path fill="#ffffff" d="m355.67947 334.773l0 0c0 -2.0439148 1.6569214 -3.7008362 3.7008667 -3.7008362l15.842346 0l0 0c0.98153687 0 1.9228821 0.38989258 2.6169128 1.0839539c0.6940613 0.69403076 1.0839539 1.635376 1.0839539 2.6168823l0 14.803009c0 2.0439453 -1.6569214 3.7008667 -3.7008667 3.7008667l-15.842346 0c-2.0439453 0 -3.7008667 -1.6569214 -3.7008667 -3.7008667z" fill-rule="evenodd"/><path stroke="#4285f4" stroke-width="2.0" stroke-linejoin="round" stroke-linecap="butt" d="m355.67947 334.773l0 0c0 -2.0439148 1.6569214 -3.7008362 3.7008667 -3.7008362l15.842346 0l0 0c0.98153687 0 1.9228821 0.38989258 2.6169128 1.0839539c0.6940613 0.69403076 1.0839539 1.635376 1.0839539 2.6168823l0 14.803009c0 2.0439453 -1.6569214 3.7008667 -3.7008667 3.7008667l-15.842346 0c-2.0439453 0 -3.7008667 -1.6569214 -3.7008667 -3.7008667z" fill-rule="evenodd"/><path fill="#4285f4" d="m371.3756 339.3289q0 -0.890625 -0.3125 -1.578125q-0.3125 -0.6875 -0.84375 -1.140625q-0.5625 -0.484375 -1.3125 -0.71875q-0.734375 -0.25 -1.609375 -0.25q-0.890625 0 -1.640625 0.25q-0.734375 0.234375 -1.25 0.71875q-0.546875 0.46875 -0.859375 1.15625q-0.296875 0.671875 -0.296875 1.5625q0 0.484375 0.140625 0.9375q0.140625 0.453125 0.375 0.828125q0.25 0.359375 0.578125 0.65625q0.34375 0.296875 0.765625 0.515625q-0.484375 0.21875 -0.890625 0.546875q-0.390625 0.328125 -0.671875 0.71875q-0.28125 0.421875 -0.4375 0.921875q-0.15625 0.484375 -0.15625 1.03125q0 0.9375 0.328125 1.640625q0.34375 0.703125 0.9375 1.171875q0.578125 0.484375 1.375 0.734375q0.796875 0.25 1.734375 0.25q0.90625 0 1.6875 -0.25q0.796875 -0.25 1.390625 -0.734375q0.578125 -0.46875 0.90625 -1.171875q0.34375 -0.71875 0.34375 -1.640625q0 -0.640625 -0.21875 -1.1875q-0.203125 -0.5625 -0.5625 -1.0q-0.265625 -0.328125 -0.625 -0.578125q-0.34375 -0.25 -0.765625 -0.453125q0.359375 -0.171875 0.640625 -0.390625q0.28125 -0.234375 0.5 -0.5q0.359375 -0.40625 0.546875 -0.921875q0.203125 -0.53125 0.203125 -1.125zm-1.890625 6.046875q0 0.5 -0.171875 0.90625q-0.15625 0.390625 -0.4375 0.671875q-0.28125 0.265625 -0.6875 0.421875q-0.390625 0.140625 -0.859375 0.140625q-0.5 0 -0.90625 -0.140625q-0.390625 -0.140625 -0.671875 -0.40625q-0.296875 -0.265625 -0.453125 -0.671875q-0.15625 -0.40625 -0.15625 -0.921875q0 -0.5 0.15625 -0.90625q0.15625 -0.40625 0.4375 -0.703125q0.28125 -0.28125 0.671875 -0.4375q0.390625 -0.15625 0.90625 -0.15625q0.46875 0 0.875 0.15625q0.40625 0.15625 0.6875 0.4375q0.28125 0.296875 0.4375 0.703125q0.171875 0.40625 0.171875 0.90625zm-0.28125 -5.96875q0 0.453125 -0.140625 0.828125q-0.140625 0.359375 -0.375 0.609375q-0.25 0.265625 -0.59375 0.421875q-0.34375 0.140625 -0.78125 0.140625q-0.421875 0 -0.78125 -0.140625q-0.34375 -0.15625 -0.578125 -0.421875q-0.265625 -0.25 -0.390625 -0.609375q-0.125 -0.375 -0.125 -0.828125q0 -0.453125 0.125 -0.828125q0.125 -0.375 0.375 -0.625q0.234375 -0.25 0.578125 -0.390625q0.34375 -0.140625 0.765625 -0.140625q0.4375 0 0.78125 0.140625q0.359375 0.140625 0.609375 0.40625q0.25 0.265625 0.390625 0.640625q0.140625 0.359375 0.140625 0.796875z" fill-rule="nonzero"/><path fill="#000000" fill-opacity="0.0" d="m403.7792 321.64966l0 0c0 -2.0439148 1.6569214 -3.7008667 3.7008667 -3.7008667l15.842377 0l0 0c0.98150635 0 1.9228516 0.3899231 2.6168823 1.0839539c0.6940613 0.6940613 1.0839539 1.635376 1.0839539 2.6169128l0 14.803009c0 2.0439148 -1.6569214 3.7008667 -3.7008362 3.7008667l-15.842377 0c-2.0439453 0 -3.7008667 -1.6569519 -3.7008667 -3.7008667z" fill-rule="evenodd"/><path fill="#1c4587" d="m413.62195 336.45428q-0.875 0 -1.53125 -0.421875q-0.65625 -0.421875 -1.015625 -1.234375q-0.359375 -0.828125 -0.359375 -2.015625q0 -1.1875 0.25 -2.28125q0.25 -1.09375 0.703125 -2.03125q0.46875 -0.9375 1.109375 -1.640625q0.65625 -0.703125 1.453125 -1.09375q0.8125 -0.390625 1.75 -0.390625q0.734375 0 1.265625 0.28125q0.53125 0.265625 0.875 0.71875q0.359375 0.4375 0.578125 0.9375l0.09375 0l0.625 -1.734375l1.234375 0l-2.265625 10.703125l-1.296875 0l0.296875 -2.078125l-0.078125 0q-0.4375 0.59375 -1.015625 1.109375q-0.5625 0.515625 -1.234375 0.84375q-0.671875 0.328125 -1.4375 0.328125zm0.515625 -1.359375q0.75 0 1.484375 -0.546875q0.75 -0.546875 1.328125 -1.484375q0.59375 -0.953125 0.90625 -2.140625q0.15625 -0.578125 0.203125 -1.046875q0.0625 -0.484375 0.0625 -0.90625q0 -1.015625 -0.53125 -1.625q-0.53125 -0.625 -1.453125 -0.625q-0.640625 0 -1.21875 0.328125q-0.578125 0.328125 -1.046875 0.90625q-0.46875 0.578125 -0.796875 1.34375q-0.328125 0.765625 -0.515625 1.671875q-0.171875 0.890625 -0.171875 1.84375q0 1.125 0.453125 1.703125q0.46875 0.578125 1.296875 0.578125z" fill-rule="nonzero"/><path fill="#000000" fill-opacity="0.0" d="m515.77924 321.64966l0 0c0 -2.0439148 1.6569214 -3.7008667 3.7008057 -3.7008667l15.842407 0l0 0c0.98150635 0 1.9228516 0.3899231 2.6168823 1.0839539c0.69403076 0.6940613 1.0839844 1.635376 1.0839844 2.6169128l0 14.803009c0 2.0439148 -1.6569214 3.7008667 -3.7008667 3.7008667l-15.842407 0c-2.0438843 0 -3.7008057 -1.6569519 -3.7008057 -3.7008667z" fill-rule="evenodd"/><path fill="#1c4587" d="m526.9374 336.45428q-0.75 0 -1.3125 -0.265625q-0.546875 -0.28125 -0.90625 -0.71875q-0.359375 -0.4375 -0.5625 -0.953125l-0.09375 0l-0.640625 1.734375l-1.234375 0l3.234375 -15.203125l1.609375 0l-0.78125 3.671875q-0.125 0.65625 -0.28125 1.296875q-0.15625 0.640625 -0.28125 1.09375q-0.125 0.4375 -0.171875 0.515625l0.078125 0q0.46875 -0.59375 1.015625 -1.109375q0.546875 -0.515625 1.1875 -0.828125q0.65625 -0.3125 1.421875 -0.3125q0.90625 0 1.5625 0.421875q0.671875 0.40625 1.03125 1.21875q0.375 0.8125 0.375 2.0q0 1.15625 -0.234375 2.25q-0.234375 1.09375 -0.671875 2.03125q-0.4375 0.9375 -1.078125 1.640625q-0.625 0.703125 -1.453125 1.109375q-0.828125 0.40625 -1.8125 0.40625zm-0.109375 -1.359375q0.671875 0 1.234375 -0.34375q0.578125 -0.34375 1.03125 -0.921875q0.46875 -0.59375 0.78125 -1.375q0.3125 -0.78125 0.46875 -1.65625q0.171875 -0.890625 0.171875 -1.796875q0 -1.125 -0.453125 -1.703125q-0.453125 -0.578125 -1.34375 -0.578125q-0.46875 0 -0.953125 0.234375q-0.484375 0.21875 -0.9375 0.640625q-0.453125 0.421875 -0.84375 1.0q-0.375 0.5625 -0.671875 1.25q-0.28125 0.671875 -0.453125 1.4375q-0.15625 0.765625 -0.15625 1.546875q0 1.03125 0.515625 1.65625q0.53125 0.609375 1.609375 0.609375z" fill-rule="nonzero"/><path fill="#ffffff" d="m501.35184 289.962l0 0c0 -2.0439148 1.6569214 -3.7008362 3.7008667 -3.7008362l26.393524 0c0.9815674 0 1.9228516 0.38989258 2.6169434 1.0839539c0.69403076 0.69403076 1.0839233 1.635376 1.0839233 2.6168823l0 14.803009c0 2.0439453 -1.6569214 3.7008667 -3.7008667 3.7008667l-26.393524 0c-2.0439453 0 -3.7008667 -1.6569214 -3.7008667 -3.7008667z" fill-rule="evenodd"/><path stroke="#4285f4" stroke-width="2.0" stroke-linejoin="round" stroke-linecap="butt" d="m501.35184 289.962l0 0c0 -2.0439148 1.6569214 -3.7008362 3.7008667 -3.7008362l26.393524 0c0.9815674 0 1.9228516 0.38989258 2.6169434 1.0839539c0.69403076 0.69403076 1.0839233 1.635376 1.0839233 2.6168823l0 14.803009c0 2.0439453 -1.6569214 3.7008667 -3.7008667 3.7008667l-26.393524 0c-2.0439453 0 -3.7008667 -1.6569214 -3.7008667 -3.7008667z" fill-rule="evenodd"/><path fill="#4285f4" d="m514.3664 304.2835l0 -13.265625l-0.140625 0l-5.453125 2.03125l0 1.921875l3.390625 -1.25l0 10.5625l2.203125 0zm13.742432 0l0 -1.765625l-6.171875 0l2.9375 -3.140625q0.59375 -0.625 1.078125 -1.203125q0.5 -0.59375 0.875 -1.15625q0.34375 -0.578125 0.546875 -1.15625q0.21875 -0.59375 0.21875 -1.21875q0 -0.84375 -0.28125 -1.53125q-0.265625 -0.703125 -0.796875 -1.203125q-0.515625 -0.5 -1.296875 -0.78125q-0.765625 -0.296875 -1.734375 -0.296875q-1.046875 0 -1.890625 0.34375q-0.84375 0.34375 -1.421875 0.90625q-0.59375 0.578125 -0.921875 1.359375q-0.3125 0.765625 -0.3125 1.625l2.1875 0q0 -0.578125 0.140625 -1.015625q0.15625 -0.453125 0.453125 -0.78125q0.28125 -0.296875 0.703125 -0.453125q0.421875 -0.171875 1.015625 -0.171875q0.453125 0 0.8125 0.15625q0.375 0.15625 0.640625 0.421875q0.265625 0.28125 0.390625 0.671875q0.140625 0.375 0.140625 0.828125q0 0.359375 -0.09375 0.703125q-0.09375 0.328125 -0.3125 0.71875q-0.21875 0.390625 -0.59375 0.859375q-0.359375 0.46875 -0.890625 1.0625l-4.328125 4.703125l0 1.515625l8.90625 0z" fill-rule="nonzero"/><path fill="#000000" fill-opacity="0.0" d="m455.6824 273.6497l0 0c0 -2.0439453 1.6569214 -3.7008667 3.7008667 -3.7008667l26.393555 0c0.98150635 0 1.9228516 0.3899231 2.6168823 1.0839539c0.6940613 0.6940613 1.0839844 1.635376 1.0839844 2.6169128l0 14.8029785c0 2.0439453 -1.6569519 3.7008667 -3.7008667 3.7008667l-26.393555 0c-2.0439453 0 -3.7008667 -1.6569214 -3.7008667 -3.7008667z" fill-rule="evenodd"/><path fill="#1c4587" d="m463.62302 289.46994l8.4375 -15.4375l-1.671875 0l-8.4375 15.4375l1.671875 0zm16.035156 -14.34375l-1.78125 0l-0.453125 2.5625l-2.6875 0l-0.234375 1.390625l2.6875 0l-0.953125 5.75q-0.078125 0.71875 0.046875 1.375q0.125 0.640625 0.453125 1.125q0.34375 0.5 0.890625 0.796875q0.546875 0.296875 1.328125 0.3125q0.703125 0.015625 1.453125 -0.09375q0.75 -0.109375 1.359375 -0.453125l-0.15625 -1.296875q-0.53125 0.125 -1.0625 0.21875q-0.53125 0.09375 -1.078125 0.078125q-0.46875 -0.015625 -0.78125 -0.171875q-0.296875 -0.171875 -0.46875 -0.4375q-0.15625 -0.28125 -0.21875 -0.640625q-0.046875 -0.375 0 -0.8125l0.953125 -5.75l3.90625 0l0.25 -1.390625l-3.90625 0l0.453125 -2.5625z" fill-rule="nonzero"/><path fill="#000000" fill-opacity="0.0" d="m258.92487 326.17453l32.75592 -28.818909" fill-rule="evenodd"/><path stroke="#4285f4" stroke-width="2.0" stroke-linejoin="round" stroke-linecap="butt" d="m258.92487 326.17453l27.609894 -24.291412" fill-rule="evenodd"/><path fill="#4285f4" stroke="#4285f4" stroke-width="2.0" stroke-linecap="butt" d="m286.53476 301.88312l-0.20297241 3.1743164l3.153839 -5.770508l-6.125183 2.3932495z" fill-rule="evenodd"/><path fill="#000000" fill-opacity="0.0" d="m303.3015 286.26114l20.661407 -40.818893" fill-rule="evenodd"/><path stroke="#4285f4" stroke-width="2.0" stroke-linejoin="round" stroke-linecap="butt" d="m303.3015 286.26114l17.565979 -34.70352" fill-rule="evenodd"/><path fill="#4285f4" stroke="#4285f4" stroke-width="2.0" stroke-linecap="butt" d="m320.8675 251.55762l0.9909668 3.0224915l0.7840271 -6.5292206l-4.7974854 4.497711z" fill-rule="evenodd"/><path fill="#000000" fill-opacity="0.0" d="m444.41437 297.3635l56.944885 0" fill-rule="evenodd"/><path stroke="#00ff00" stroke-width="2.0" stroke-linejoin="round" stroke-linecap="butt" d="m444.41437 297.3635l50.09073 0" fill-rule="evenodd"/><path fill="#00ff00" stroke="#00ff00" stroke-width="2.0" stroke-linecap="butt" d="m494.50507 297.3635l-2.2491455 2.249176l6.179535 -2.249176l-6.179535 -2.249176z" fill-rule="evenodd"/><path fill="#000000" fill-opacity="0.0" d="m410.83563 245.74277l21.952759 40.503937" fill-rule="evenodd"/><path stroke="#4285f4" stroke-width="2.0" stroke-linejoin="round" stroke-linecap="butt" d="m410.83563 245.74277l18.686707 34.477936" fill-rule="evenodd"/><path fill="#4285f4" stroke="#4285f4" stroke-width="2.0" stroke-linecap="butt" d="m429.52234 280.2207l-3.0491333 -0.90567017l4.9219666 4.361145l-0.9671631 -6.504608z" fill-rule="evenodd"/><path fill="#000000" fill-opacity="0.0" d="m378.92355 342.17453l86.39371 0" fill-rule="evenodd"/><path stroke="#1c4587" stroke-width="2.0" stroke-linejoin="round" stroke-linecap="butt" d="m378.92355 342.17453l79.53955 0" fill-rule="evenodd"/><path fill="#1c4587" stroke="#1c4587" stroke-width="2.0" stroke-linecap="butt" d="m458.46307 342.17453l-2.2491455 2.2491455l6.179535 -2.2491455l-6.179535 -2.249176z" fill-rule="evenodd"/><path fill="#000000" fill-opacity="0.0" d="m488.55643 342.17584l78.11026 0" fill-rule="evenodd"/><path stroke="#1c4587" stroke-width="2.0" stroke-linejoin="round" stroke-linecap="butt" d="m488.55643 342.17584l71.25607 0" fill-rule="evenodd"/><path fill="#1c4587" stroke="#1c4587" stroke-width="2.0" stroke-linecap="butt" d="m559.8125 342.17584l-2.2491455 2.249176l6.1795044 -2.249176l-6.1795044 -2.2491455z" fill-rule="evenodd"/><path fill="#000000" fill-opacity="0.0" d="m604.3202 342.17453l82.33075 -16.0" fill-rule="evenodd"/><path stroke="#4285f4" stroke-width="2.0" stroke-linejoin="round" stroke-linecap="butt" d="m604.3202 342.17453l75.60242 -14.692444" fill-rule="evenodd"/><path fill="#4285f4" stroke="#4285f4" stroke-width="2.0" stroke-linecap="butt" d="m679.9226 327.48212l-1.7787476 2.6369324l5.636963 -3.3867493l-6.495117 -1.0289917z" fill-rule="evenodd"/><path fill="#000000" fill-opacity="0.0" d="m335.59024 234.34906c0 -12.5 15.905487 -25.03543 31.811005 -25.0c15.905518 0.035446167 31.811035 12.641739 31.811035 25.283463" fill-rule="evenodd"/><path stroke="#1c4587" stroke-width="2.0" stroke-linejoin="round" stroke-linecap="butt" d="m335.5902 234.34906c0 -12.5 15.905518 -25.03543 31.811035 -25.0c7.952759 0.017715454 15.905518 3.1781464 21.870087 7.9143677c2.9822693 2.3681183 5.467499 5.1301727 7.207184 8.0903015c0.434906 0.740036 0.8232422 1.4924622 1.1610718 2.2541962c0.04220581 0.095214844 0.0836792 0.19056702 0.12432861 0.28608704l0.014953613 0.03590393" fill-rule="evenodd"/><path fill="#1c4587" stroke="#1c4587" stroke-width="2.0" stroke-linecap="butt" d="m397.77887 227.92992l-2.6697998 -1.729065l3.4917603 5.572525l0.9071045 -6.51326z" fill-rule="evenodd"/><path fill="#000000" fill-opacity="0.0" d="m399.2136 256.84512c0 12.5 -15.905518 25.03543 -31.811035 25.0c-15.905518 -0.03543091 -31.811005 -12.641724 -31.811005 -25.283447" fill-rule="evenodd"/><path stroke="#4285f4" stroke-width="2.0" stroke-linejoin="round" stroke-linecap="butt" d="m399.2136 256.84512c0 12.5 -15.905518 25.03543 -31.811035 25.0c-7.952759 -0.017730713 -15.905518 -3.1781616 -21.870087 -7.9143677c-2.9822693 -2.368103 -5.467499 -5.1301575 -7.207184 -8.0903015c-0.434906 -0.74005127 -0.8232422 -1.4924622 -1.1610718 -2.254181c-0.042236328 -0.09524536 -0.0836792 -0.19058228 -0.124298096 -0.2861023l-0.014953613 -0.035888672" fill-rule="evenodd"/><path fill="#4285f4" stroke="#4285f4" stroke-width="2.0" stroke-linecap="butt" d="m337.02493 263.26428l2.6698303 1.729065l-3.4917603 -5.5725403l-0.907135 6.513275z" fill-rule="evenodd"/><path fill="#000000" fill-opacity="0.0" d="m518.24945 286.26117l15.2126465 -40.81891" fill-rule="evenodd"/><path stroke="#4285f4" stroke-width="2.0" stroke-linejoin="round" stroke-linecap="butt" d="m518.24945 286.26117l12.81897 -34.396286" fill-rule="evenodd"/><path fill="#4285f4" stroke="#4285f4" stroke-width="2.0" stroke-linecap="butt" d="m531.0684 251.8649l1.3221436 2.8930054l0.050476074 -6.5759277l-4.265625 5.00502z" fill-rule="evenodd"/><path fill="#000000" fill-opacity="0.0" d="m314.92355 297.3635l106.23624 0" fill-rule="evenodd"/><path stroke="#4285f4" stroke-width="2.0" stroke-linejoin="round" stroke-linecap="butt" d="m314.92355 297.3635l99.38205 0" fill-rule="evenodd"/><path fill="#4285f4" stroke="#4285f4" stroke-width="2.0" stroke-linecap="butt" d="m414.3056 297.3635l-2.249176 2.249176l6.179535 -2.249176l-6.179535 -2.249176z" fill-rule="evenodd"/><path fill="#000000" fill-opacity="0.0" d="m620.316 245.74277l21.952698 40.503937" fill-rule="evenodd"/><path stroke="#4285f4" stroke-width="2.0" stroke-linejoin="round" stroke-linecap="butt" d="m620.3159 245.74277l18.686768 34.477936" fill-rule="evenodd"/><path fill="#4285f4" stroke="#4285f4" stroke-width="2.0" stroke-linecap="butt" d="m639.0027 280.2207l-3.0491333 -0.90567017l4.921936 4.361145l-0.9671631 -6.504608z" fill-rule="evenodd"/><path fill="#000000" fill-opacity="0.0" d="m545.07056 234.34906c0 -12.5 15.905518 -25.03543 31.811035 -25.0c15.905518 0.035446167 31.810974 12.641739 31.810974 25.283463" fill-rule="evenodd"/><path stroke="#1c4587" stroke-width="2.0" stroke-linejoin="round" stroke-linecap="butt" d="m545.07056 234.34906c0 -12.5 15.905518 -25.03543 31.811035 -25.0c7.9526978 0.017715454 15.905457 3.1781464 21.870056 7.9143677c2.9822998 2.3681183 5.4675293 5.1301727 7.2071533 8.0903015c0.43493652 0.740036 0.8232422 1.4924622 1.1611328 2.2541962c0.042175293 0.095214844 0.083618164 0.19056702 0.12426758 0.28608704l0.015014648 0.03590393" fill-rule="evenodd"/><path fill="#1c4587" stroke="#1c4587" stroke-width="2.0" stroke-linecap="butt" d="m607.25916 227.92992l-2.6697998 -1.729065l3.4917603 5.572525l0.9071045 -6.51326z" fill-rule="evenodd"/><path fill="#000000" fill-opacity="0.0" d="m608.6939 256.84512c0 12.5 -15.905518 25.03543 -31.811035 25.0c-15.905518 -0.03543091 -31.811035 -12.641724 -31.811035 -25.283447" fill-rule="evenodd"/><path stroke="#4285f4" stroke-width="2.0" stroke-linejoin="round" stroke-linecap="butt" d="m608.6939 256.84512c0 12.5 -15.905518 25.03543 -31.811035 25.0c-7.952759 -0.017730713 -15.905518 -3.1781616 -21.870056 -7.9143677c-2.9822998 -2.368103 -5.4675293 -5.1301575 -7.2072144 -8.0903015c-0.43493652 -0.74005127 -0.8232422 -1.4924622 -1.1610718 -2.254181c-0.042236328 -0.09524536 -0.0836792 -0.19058228 -0.12432861 -0.2861023l-0.014953613 -0.035888672" fill-rule="evenodd"/><path fill="#4285f4" stroke="#4285f4" stroke-width="2.0" stroke-linecap="butt" d="m546.50525 263.26428l2.6697998 1.729065l-3.4917603 -5.5725403l-0.9071045 6.513275z" fill-rule="evenodd"/><path fill="#000000" fill-opacity="0.0" d="m258.92487 326.17453l96.75592 16.0" fill-rule="evenodd"/><path stroke="#4285f4" stroke-width="2.0" stroke-linejoin="round" stroke-linecap="butt" d="m258.92487 326.17453l89.99356 14.881744" fill-rule="evenodd"/><path fill="#4285f4" stroke="#4285f4" stroke-width="2.0" stroke-linecap="butt" d="m348.91843 341.05627l-2.585968 1.8520813l6.463684 -1.210846l-5.7297974 -3.227234z" fill-rule="evenodd"/><path fill="#000000" fill-opacity="0.0" d="m653.8947 297.3635l32.75586 28.818909" fill-rule="evenodd"/><path stroke="#4285f4" stroke-width="2.0" stroke-linejoin="round" stroke-linecap="butt" d="m653.8947 297.3635l27.609863 24.291412" fill-rule="evenodd"/><path fill="#4285f4" stroke="#4285f4" stroke-width="2.0" stroke-linecap="butt" d="m681.5046 321.6549l-3.1743164 0.2029419l6.125183 2.3932495l-3.1538086 -5.7705383z" fill-rule="evenodd"/><path fill="#000000" fill-opacity="0.0" d="m535.1471 297.36353l95.49609 0" fill-rule="evenodd"/><path stroke="#4285f4" stroke-width="2.0" stroke-linejoin="round" stroke-linecap="butt" d="m535.1471 297.36353l88.64191 0" fill-rule="evenodd"/><path fill="#4285f4" stroke="#4285f4" stroke-width="2.0" stroke-linecap="butt" d="m623.789 297.36353l-2.2491455 2.2491455l6.1795044 -2.2491455l-6.1795044 -2.249176z" fill-rule="evenodd"/></g></svg>